<svg data-v-fde0c5aa="" xmlns="http://www.w3.org/2000/svg" viewBox="0 0 300 300" class="iconLeftSlogan"><!----><defs data-v-fde0c5aa=""><linearGradient data-v-fde0c5aa="" gradientTransform="rotate(25)" id="71774919-c766-4f5b-ae53-607a50498251" x1="0%" y1="0%" x2="100%" y2="0%"><stop data-v-fde0c5aa="" offset="0%" stop-color="#000A68" stop-opacity="1"></stop><stop data-v-fde0c5aa="" offset="100%" stop-color="#00C4EE" stop-opacity="1"></stop></linearGradient></defs><rect data-v-fde0c5aa="" fill="url(#71774919-c766-4f5b-ae53-607a50498251)" x="0" y="0" width="300px" height="300px" class="logo-background-square"></rect><defs data-v-fde0c5aa=""><!----></defs><g data-v-fde0c5aa="" id="ea0d8788-5d18-440c-91d1-fb59205f23d8" fill="#ffffff" transform="matrix(2.1285190011296637,0,0,2.1285190011296637,128.04778355530925,115.16018360190219)"><path d="M3.56 7.41L3.18 8.37L3.07 8.65L4.05 9.48L3.95 9.07L3.95 9.07Q3.85 8.68 3.56 7.41L3.56 7.41ZM4.77 4.28L4.77 4.28Q4.97 5.50 5.27 6.75L5.27 6.75L5.27 6.75Q5.57 8.01 6.01 9.63L6.01 9.63L6.01 9.63Q6.41 11.17 6.54 11.68L6.54 11.68L6.54 11.68Q6.55 11.72 6.55 11.80L6.55 11.80L6.55 11.80Q6.55 12.14 6.17 12.38L6.17 12.38L6.17 12.38Q5.80 12.63 5.39 12.63L5.39 12.63L5.39 12.63Q5.05 12.63 4.87 12.45L4.87 12.45L4.87 12.45Q4.47 12.01 4.02 11.62L4.02 11.62L4.02 11.62Q3.57 11.23 2.84 10.65L2.84 10.65L2.38 10.28L2.38 10.28Q1.79 11.54 1.47 12.14L1.47 12.14L1.47 12.14Q1.37 12.35 0.96 12.52L0.96 12.52L0.96 12.52Q0.55 12.70 0.20 12.70L0.20 12.70L0.20 12.70Q-0.20 12.70-0.20 12.45L-0.20 12.45L-0.20 12.45Q-0.20 12.38-0.15 12.28L-0.15 12.28L-0.15 12.28Q0.27 11.24 0.84 9.90L0.84 9.90L1.13 9.18L1.13 9.18Q0.78 8.83 0.78 8.83L0.78 8.83L0.78 8.83Q0.69 8.74 0.69 8.61L0.69 8.61L0.69 8.61Q0.69 8.37 0.99 8.16L0.99 8.16L0.99 8.16Q1.30 7.94 1.68 7.87L1.68 7.87L1.68 7.87Q2.35 6.26 2.94 4.59L2.94 4.59L2.94 4.59Q3.00 4.40 3.30 4.25L3.30 4.25L3.30 4.25Q3.60 4.10 3.93 4.06L3.93 4.06L3.93 4.06Q4.17 3.99 4.34 3.99L4.34 3.99L4.34 3.99Q4.73 3.99 4.77 4.28L4.77 4.28ZM12.40 4.63L12.40 4.63Q12.07 7.18 12.07 9.44L12.07 9.44L12.07 9.44Q12.07 10.53 12.15 11.65L12.15 11.65L12.15 11.65Q12.18 11.73 12.18 11.79L12.18 11.79L12.18 11.79Q12.18 11.83 12.15 11.91L12.15 11.91L12.15 11.91Q12.15 11.93 12.14 11.93L12.14 11.93L12.14 11.93Q12.14 11.93 12.14 11.93L12.14 11.93L12.14 11.96L12.14 11.96Q12.05 12.19 11.75 12.37L11.75 12.37L11.75 12.37Q11.44 12.54 11.09 12.57L11.09 12.57L11.09 12.57Q10.53 12.63 10.42 12.28L10.42 12.28L10.42 12.28Q9.93 10.96 8.86 8.64L8.86 8.64L8.69 8.25L8.69 8.25Q8.58 10.00 8.55 11.98L8.55 11.98L8.55 11.98Q8.55 12.28 8.16 12.51L8.16 12.51L8.16 12.51Q7.77 12.74 7.36 12.74L7.36 12.74L7.36 12.74Q7.11 12.74 6.96 12.64L6.96 12.64L6.96 12.64Q6.80 12.54 6.82 12.32L6.82 12.32L6.82 12.32Q6.90 8.51 7.36 5.11L7.36 5.11L7.38 5.05L7.38 5.05Q7.35 4.75 7.76 4.49L7.76 4.49L7.76 4.49Q8.16 4.24 8.57 4.24L8.57 4.24L8.57 4.24Q8.99 4.24 9.09 4.52L9.09 4.52L9.09 4.52Q9.53 5.74 10.42 7.66L10.42 7.66L10.42 7.66Q10.50 6.34 10.71 4.98L10.71 4.98L10.71 4.98Q10.75 4.70 11.16 4.49L11.16 4.49L11.16 4.49Q11.56 4.27 11.96 4.27L11.96 4.27L11.96 4.27Q12.46 4.27 12.40 4.63L12.40 4.63ZM18.19 4.63L18.19 4.63Q17.85 7.18 17.85 9.44L17.85 9.44L17.85 9.44Q17.85 10.53 17.93 11.65L17.93 11.65L17.93 11.65Q17.96 11.73 17.96 11.79L17.96 11.79L17.96 11.79Q17.96 11.83 17.93 11.91L17.93 11.91L17.93 11.91Q17.93 11.93 17.93 11.93L17.93 11.93L17.93 11.93Q17.92 11.93 17.92 11.93L17.92 11.93L17.92 11.96L17.92 11.96Q17.84 12.19 17.53 12.37L17.53 12.37L17.53 12.37Q17.22 12.54 16.87 12.57L16.87 12.57L16.87 12.57Q16.31 12.63 16.20 12.28L16.20 12.28L16.20 12.28Q15.71 10.96 14.64 8.64L14.64 8.64L14.48 8.25L14.48 8.25Q14.36 10.00 14.34 11.98L14.34 11.98L14.34 11.98Q14.34 12.28 13.94 12.51L13.94 12.51L13.94 12.51Q13.55 12.74 13.15 12.74L13.15 12.74L13.15 12.74Q12.89 12.74 12.74 12.64L12.74 12.64L12.74 12.64Q12.59 12.54 12.60 12.32L12.60 12.32L12.60 12.32Q12.68 8.51 13.15 5.11L13.15 5.11L13.16 5.05L13.16 5.05Q13.13 4.75 13.54 4.49L13.54 4.49L13.54 4.49Q13.94 4.24 14.35 4.24L14.35 4.24L14.35 4.24Q14.77 4.24 14.87 4.52L14.87 4.52L14.87 4.52Q15.32 5.74 16.20 7.66L16.20 7.66L16.20 7.66Q16.28 6.34 16.49 4.98L16.49 4.98L16.49 4.98Q16.53 4.70 16.94 4.49L16.94 4.49L16.94 4.49Q17.35 4.27 17.74 4.27L17.74 4.27L17.74 4.27Q18.24 4.27 18.19 4.63L18.19 4.63ZM28.43 6.51L28.43 6.51Q28.17 6.29 27.52 5.92L27.52 5.92L27.52 5.92Q26.87 5.54 26.52 5.54L26.52 5.54L26.52 5.54Q26.24 5.54 26.24 5.82L26.24 5.82L26.24 5.82Q26.24 5.92 26.31 6.16L26.31 6.16L26.31 6.16Q26.40 6.48 26.74 6.77L26.74 6.77L26.74 6.77Q27.08 7.06 27.62 7.43L27.62 7.43L27.62 7.43Q28.07 7.74 28.20 7.85L28.20 7.85L28.20 7.85Q28.81 8.39 29.18 8.74L29.18 8.74L29.18 8.74Q29.54 9.10 29.84 9.58L29.84 9.58L29.84 9.58Q30.14 10.07 30.14 10.57L30.14 10.57L30.14 10.57Q30.14 10.91 29.97 11.27L29.97 11.27L29.97 11.27Q29.65 11.93 28.92 12.28L28.92 12.28L28.92 12.28Q28.18 12.63 27.36 12.63L27.36 12.63L27.36 12.63Q27.08 12.63 26.80 12.59L26.80 12.59L26.80 12.59Q24.89 12.26 23.28 10.05L23.28 10.05L23.28 10.05Q23.20 9.93 23.20 9.80L23.20 9.80L23.20 9.80Q23.20 9.49 23.61 9.23L23.61 9.23L23.61 9.23Q24.02 8.97 24.43 8.97L24.43 8.97L24.43 8.97Q24.74 8.97 24.88 9.16L24.88 9.16L24.88 9.16Q25.75 10.33 26.59 10.88L26.59 10.88L26.59 10.88Q27.36 11.38 27.89 11.38L27.89 11.38L27.89 11.38Q28.32 11.38 28.32 11.00L28.32 11.00L28.32 11.00Q28.32 10.74 28.11 10.35L28.11 10.35L28.11 10.35Q27.90 9.97 27.57 9.63L27.57 9.63L27.57 9.63Q27.23 9.30 26.71 8.86L26.71 8.86L26.33 8.54L26.33 8.54Q26.28 8.48 25.82 8.13L25.82 8.13L25.82 8.13Q25.44 7.85 25.17 7.62L25.17 7.62L25.17 7.62Q24.91 7.38 24.72 7.10L24.72 7.10L24.72 7.10Q24.49 6.72 24.49 6.31L24.49 6.31L24.49 6.31Q24.49 5.68 25.02 5.16L25.02 5.16L25.02 5.16Q25.56 4.63 26.26 4.44L26.26 4.44L26.26 4.44Q26.71 4.31 27.12 4.31L27.12 4.31L27.12 4.31Q27.87 4.31 28.58 4.66L28.58 4.66L28.58 4.66Q29.29 5.01 30.02 5.63L30.02 5.63L30.02 5.63Q30.14 5.73 30.14 5.87L30.14 5.87L30.14 5.87Q30.14 6.13 29.71 6.38L29.71 6.38L29.71 6.38Q29.27 6.64 28.85 6.64L28.85 6.64L28.85 6.64Q28.57 6.64 28.43 6.51L28.43 6.51ZM34.68 8.60L34.68 8.60Q34.89 8.06 34.89 7.57L34.89 7.57L34.89 7.57Q34.89 6.93 34.52 6.52L34.52 6.52L34.52 6.52Q33.98 5.88 32.69 5.91L32.69 5.91L32.69 5.91Q32.44 8.12 32.30 11.24L32.30 11.24L32.30 11.24Q33.10 10.82 33.73 10.13L33.73 10.13L33.73 10.13Q34.36 9.44 34.68 8.60L34.68 8.60ZM32.83 4.82L32.83 4.82Q32.98 4.80 33.31 4.80L33.31 4.80L33.31 4.80Q35.01 4.80 35.85 5.64L35.85 5.64L35.85 5.64Q36.48 6.26 36.48 7.22L36.48 7.22L36.48 7.22Q36.48 7.73 36.26 8.43L36.26 8.43L36.26 8.43Q35.80 9.74 34.72 10.79L34.72 10.79L34.72 10.79Q33.64 11.83 32.26 12.38L32.26 12.38L32.26 12.38Q32.20 13.80 32.17 14.88L32.17 14.88L32.17 14.88Q32.14 15.95 32.13 16.66L32.13 16.66L32.13 16.66Q32.12 18.37 32.05 20.09L32.05 20.09L32.05 20.09Q32.03 20.38 31.63 20.61L31.63 20.61L31.63 20.61Q31.22 20.83 30.80 20.83L30.80 20.83L30.80 20.83Q30.31 20.83 30.31 20.47L30.31 20.47L30.32 19.35L30.32 19.35Q30.34 18.80 30.37 16.72L30.37 16.72L30.37 16.72Q30.41 14.63 30.49 12.82L30.49 12.82L30.49 12.82Q30.11 12.87 29.75 12.87L29.75 12.87L29.75 12.87Q29.48 12.87 29.35 12.78L29.35 12.78L29.35 12.78Q29.22 12.70 29.22 12.56L29.22 12.56L29.22 12.56Q29.22 12.31 29.56 12.03L29.56 12.03L29.56 12.03Q29.90 11.75 30.25 11.75L30.25 11.75L30.25 11.75Q30.45 11.75 30.53 11.73L30.53 11.73L30.53 11.73Q30.69 8.72 31.01 5.95L31.01 5.95L31.01 5.95Q30.91 5.89 30.91 5.77L30.91 5.77L30.91 5.77Q30.91 5.60 31.09 5.38L31.09 5.38L31.09 5.38Q31.09 5.29 31.12 5.10L31.12 5.10L31.12 5.10Q31.16 4.80 31.57 4.59L31.57 4.59L31.57 4.59Q31.98 4.37 32.35 4.37L32.35 4.37L32.35 4.37Q32.59 4.37 32.73 4.47L32.73 4.47L32.73 4.47Q32.86 4.56 32.83 4.76L32.83 4.76L32.83 4.82ZM42.97 11.14L42.97 11.14Q43.18 11.21 43.18 11.40L43.18 11.40L43.18 11.40Q43.18 11.62 42.91 11.89L42.91 11.89L42.91 11.89Q42.62 12.18 42.15 12.18L42.15 12.18L42.15 12.18Q41.93 12.18 41.78 12.12L41.78 12.12L41.78 12.12Q41.03 11.89 40.43 11.89L40.43 11.89L40.43 11.89Q39.38 11.89 38.29 12.56L38.29 12.56L38.29 12.56Q38.11 12.68 37.85 12.76L37.85 12.76L37.85 12.76Q37.59 12.84 37.37 12.84L37.37 12.84L37.37 12.84Q37.16 12.84 37.03 12.76L37.03 12.76L37.03 12.76Q36.90 12.68 36.90 12.52L36.90 12.52L36.90 12.52Q36.90 12.42 36.93 12.35L36.93 12.35L36.93 12.35Q37.34 11.21 37.58 10.30L37.58 10.30L37.58 10.30Q37.83 9.39 37.91 8.46L37.91 8.46L37.91 8.46Q38.04 7.20 38.04 6.61L38.04 6.61L38.04 6.61Q38.04 5.05 37.44 4.23L37.44 4.23L37.44 4.23Q37.37 4.14 37.37 4.00L37.37 4.00L37.37 4.00Q37.37 3.72 37.76 3.48L37.76 3.48L37.76 3.48Q38.15 3.23 38.53 3.23L38.53 3.23L38.53 3.23Q38.78 3.23 38.89 3.35L38.89 3.35L38.89 3.35Q39.07 3.42 39.13 3.57L39.13 3.57L39.13 3.57Q39.48 4.49 40.10 5.13L40.10 5.13L40.10 5.13Q40.71 5.77 41.55 5.77L41.55 5.77L41.55 5.77Q41.71 5.77 42.01 5.71L42.01 5.71L42.01 5.71Q42.21 5.68 42.27 5.68L42.27 5.68L42.27 5.68Q42.50 5.68 42.62 5.79L42.62 5.79L42.62 5.79Q42.74 5.89 42.74 6.08L42.74 6.08L42.74 6.08Q42.74 6.27 42.58 6.47L42.58 6.47L42.58 6.47Q42.42 6.66 42.15 6.75L42.15 6.75L42.15 6.75Q41.58 6.94 41.01 6.94L41.01 6.94L41.01 6.94Q40.32 6.94 39.69 6.66L39.69 6.66L39.69 6.66Q39.66 7.45 39.62 7.84L39.62 7.84L39.52 8.72L39.52 8.72Q40.07 8.62 40.61 8.55L40.61 8.55L40.81 8.54L40.81 8.54Q41.37 8.54 41.37 8.92L41.37 8.92L41.37 8.92Q41.37 9.17 41.09 9.37L41.09 9.37L41.09 9.37Q40.81 9.56 40.52 9.62L40.52 9.62L40.52 9.62Q40.08 9.70 39.33 9.80L39.33 9.80L39.33 9.80Q39.17 10.49 38.99 11.09L38.99 11.09L38.99 11.09Q39.91 10.75 40.87 10.75L40.87 10.75L40.87 10.75Q41.92 10.75 42.97 11.14L42.97 11.14ZM49.69 11.14L49.69 11.14Q49.90 11.21 49.90 11.40L49.90 11.40L49.90 11.40Q49.90 11.62 49.63 11.89L49.63 11.89L49.63 11.89Q49.34 12.18 48.87 12.18L48.87 12.18L48.87 12.18Q48.65 12.18 48.50 12.12L48.50 12.12L48.50 12.12Q47.75 11.89 47.15 11.89L47.15 11.89L47.15 11.89Q46.10 11.89 45.01 12.56L45.01 12.56L45.01 12.56Q44.83 12.68 44.57 12.76L44.57 12.76L44.57 12.76Q44.31 12.84 44.09 12.84L44.09 12.84L44.09 12.84Q43.88 12.84 43.75 12.76L43.75 12.76L43.75 12.76Q43.62 12.68 43.62 12.52L43.62 12.52L43.62 12.52Q43.62 12.42 43.65 12.35L43.65 12.35L43.65 12.35Q44.06 11.21 44.30 10.30L44.30 10.30L44.30 10.30Q44.55 9.39 44.63 8.46L44.63 8.46L44.63 8.46Q44.76 7.20 44.76 6.61L44.76 6.61L44.76 6.61Q44.76 5.05 44.16 4.23L44.16 4.23L44.16 4.23Q44.09 4.14 44.09 4.00L44.09 4.00L44.09 4.00Q44.09 3.72 44.48 3.48L44.48 3.48L44.48 3.48Q44.87 3.23 45.25 3.23L45.25 3.23L45.25 3.23Q45.50 3.23 45.61 3.35L45.61 3.35L45.61 3.35Q45.79 3.42 45.85 3.57L45.85 3.57L45.85 3.57Q46.20 4.49 46.82 5.13L46.82 5.13L46.82 5.13Q47.43 5.77 48.27 5.77L48.27 5.77L48.27 5.77Q48.43 5.77 48.73 5.71L48.73 5.71L48.73 5.71Q48.93 5.68 48.99 5.68L48.99 5.68L48.99 5.68Q49.22 5.68 49.34 5.79L49.34 5.79L49.34 5.79Q49.46 5.89 49.46 6.08L49.46 6.08L49.46 6.08Q49.46 6.27 49.30 6.47L49.30 6.47L49.30 6.47Q49.14 6.66 48.87 6.75L48.87 6.75L48.87 6.75Q48.30 6.94 47.73 6.94L47.73 6.94L47.73 6.94Q47.04 6.94 46.41 6.66L46.41 6.66L46.41 6.66Q46.38 7.45 46.34 7.84L46.34 7.84L46.24 8.72L46.24 8.72Q46.79 8.62 47.33 8.55L47.33 8.55L47.53 8.54L47.53 8.54Q48.09 8.54 48.09 8.92L48.09 8.92L48.09 8.92Q48.09 9.17 47.81 9.37L47.81 9.37L47.81 9.37Q47.53 9.56 47.24 9.62L47.24 9.62L47.24 9.62Q46.80 9.70 46.05 9.80L46.05 9.80L46.05 9.80Q45.89 10.49 45.71 11.09L45.71 11.09L45.71 11.09Q46.63 10.75 47.59 10.75L47.59 10.75L47.59 10.75Q48.64 10.75 49.69 11.14L49.69 11.14ZM55.31 6.97L55.31 6.97Q55.37 6.69 55.74 6.50L55.74 6.50L55.74 6.50Q56.11 6.30 56.48 6.30L56.48 6.30L56.48 6.30Q56.95 6.30 56.90 6.66L56.90 6.66L56.84 6.99L56.84 6.99Q56.63 8.18 56.41 9.00L56.41 9.00L56.41 9.00Q56.20 9.81 55.76 10.58L55.76 10.58L55.76 10.58Q55.31 11.35 54.60 11.80L54.60 11.80L54.60 11.80Q53.68 12.39 52.71 12.39L52.71 12.39L52.71 12.39Q52.14 12.39 51.64 12.15L51.64 12.15L51.64 12.15Q51.14 11.91 50.81 11.41L50.81 11.41L50.81 11.41Q50.22 10.54 50.22 9.42L50.22 9.42L50.22 9.42Q50.22 7.91 51.30 5.92L51.30 5.92L51.30 5.92Q51.66 5.24 52.06 4.83L52.06 4.83L52.06 4.83Q52.46 4.42 53.06 4.34L53.06 4.34L53.06 4.34Q53.12 4.33 53.21 4.33L53.21 4.33L53.21 4.33Q53.44 4.33 53.61 4.41L53.61 4.41L53.61 4.41Q54.03 3.49 54.25 3.02L54.25 3.02L54.25 3.02Q54.35 2.81 54.72 2.66L54.72 2.66L54.72 2.66Q55.09 2.51 55.41 2.51L55.41 2.51L55.41 2.51Q55.83 2.51 55.83 2.77L55.83 2.77L55.83 2.77Q55.83 2.83 55.79 2.94L55.79 2.94L55.79 2.94Q54.82 5.29 54.22 6.59L54.22 6.59L54.22 6.59Q54.12 6.82 53.77 6.97L53.77 6.97L53.77 6.97Q53.41 7.13 53.07 7.13L53.07 7.13L53.07 7.13Q52.85 7.13 52.71 7.06L52.71 7.06L52.71 7.06Q52.57 6.99 52.57 6.83L52.57 6.83L52.57 6.83Q52.57 6.73 52.63 6.62L52.63 6.62L52.84 6.15L52.84 6.15Q52.77 6.13 52.71 6.08L52.71 6.08L52.43 6.73L52.43 6.73Q52.04 7.59 51.91 8.44L51.91 8.44L51.91 8.44Q51.87 8.71 51.87 8.99L51.87 8.99L51.87 8.99Q51.87 9.59 52.05 10.12L52.05 10.12L52.05 10.12Q52.23 10.65 52.63 10.98L52.63 10.98L52.63 10.98Q52.95 11.26 53.26 11.26L53.26 11.26L53.26 11.26Q54.49 11.26 55.31 6.97L55.31 6.97ZM60.37 5.08L60.37 5.08Q60.37 4.79 60.73 4.58L60.73 4.58L60.73 4.58Q61.10 4.37 61.49 4.37L61.49 4.37L61.49 4.37Q61.73 4.37 61.87 4.46L61.87 4.46L61.87 4.46Q62.01 4.55 61.99 4.75L61.99 4.75L61.99 4.75Q61.96 5.95 61.94 8.39L61.94 8.39L61.87 12.04L61.87 12.04Q61.85 12.35 61.48 12.57L61.48 12.57L61.48 12.57Q61.11 12.80 60.72 12.80L60.72 12.80L60.72 12.80Q60.47 12.80 60.32 12.69L60.32 12.69L60.32 12.69Q60.17 12.59 60.17 12.38L60.17 12.38L60.23 10.08L60.23 10.08Q60.17 10.09 60.06 10.09L60.06 10.09L59.78 10.08L59.78 10.08Q59.68 10.07 59.49 10.07L59.49 10.07L59.49 10.07Q59.39 10.07 59.25 10.09L59.25 10.09L59.25 10.09Q59.18 11.49 59.05 12.47L59.05 12.47L59.05 12.47Q59.02 12.77 58.63 12.99L58.63 12.99L58.63 12.99Q58.23 13.22 57.83 13.22L57.83 13.22L57.83 13.22Q57.60 13.22 57.46 13.12L57.46 13.12L57.46 13.12Q57.33 13.02 57.34 12.82L57.34 12.82L57.34 12.82Q57.55 10.89 57.61 9.30L57.61 9.30L57.62 8.88L57.62 8.88Q57.67 7.66 57.67 7.27L57.67 7.27L57.67 7.27Q57.67 6.01 57.51 5.71L57.51 5.71L57.51 5.71Q57.29 5.73 57.17 5.63L57.17 5.63L57.17 5.63Q57.05 5.54 57.05 5.40L57.05 5.40L57.05 5.40Q57.05 5.26 57.16 5.11L57.16 5.11L57.16 5.11Q57.27 4.96 57.44 4.86L57.44 4.86L57.44 4.86Q57.97 4.56 58.35 4.56L58.35 4.56L58.35 4.56Q58.66 4.56 58.90 4.76L58.90 4.76L58.90 4.76Q59.26 5.07 59.26 6.05L59.26 6.05L59.25 6.75L59.25 6.75Q59.29 7.46 59.29 8.19L59.29 8.19L59.28 9.02L59.28 9.02Q59.36 8.99 59.54 9.02L59.54 9.02L59.54 9.02Q59.72 9.04 59.82 9.04L59.82 9.04L59.82 9.04Q59.92 9.04 60.05 9.02L60.05 9.02L60.05 9.02Q60.17 9.00 60.27 8.99L60.27 8.99L60.37 5.08Z"></path></g><defs data-v-fde0c5aa=""><!----></defs><g data-v-fde0c5aa="" id="cf1a47d3-3352-4c10-9b5e-8842993f7121" stroke="none" fill="#ffffff" transform="matrix(1.013066808831507,0,0,1.013066808831507,24.970205106987112,97.3204853630582)"><g clip-rule="evenodd"><path d="M64.664 83.801c-.252-1.495-.367-2.973-.76-4.37-.949-3.373-3.178-5.465-6.656-6.134a9.417 9.417 0 0 0-1.711-.141c-4.35-.012-8.7-.065-13.047.014-3.073.057-5.777-2.613-5.749-5.755.063-7.013.064-14.026-.001-21.039-.028-3.143 2.672-5.784 5.797-5.771 13.354.055 26.709.062 40.062-.005 3.105-.018 5.941 2.49 5.896 5.854-.061 4.713-.012 9.427-.016 14.142-.002 2.472.021 4.944-.035 7.412-.057 2.553-2.477 5.052-5.035 5.103-3.908.079-7.816.033-11.729.038-.965.002-1.002-.003-1.111.907-.346 2.841-1.807 5.128-3.584 7.249-.733.881-1.557 1.682-2.321 2.496z"></path><path d="M40.759 20.202c6.669 0 13.336-.01 20.004.007 2.072.005 3.744.857 4.916 2.588a5.28 5.28 0 0 1 .936 3.022c-.004 3.717-.012 7.433.01 11.151.004.527-.172.63-.66.63-7.855-.014-15.711-.01-23.568-.01-4.311 0-7.959 3.11-8.547 7.385-.173 1.262-.103 2.558-.124 3.839-.017 1.033-.003 2.069-.003 3.103 0 .882 0 .883-.855.883-2.932 0-5.862.002-8.795-.001-1.322-.002-2.645.021-3.965-.029-2.568-.095-4.882-2.284-5.167-4.857a15.065 15.065 0 0 1-.098-1.657c-.006-6.727-.014-13.451.004-20.177.003-1.929.76-3.531 2.315-4.714 1.061-.807 2.278-1.157 3.593-1.159 6.669-.007 13.337-.004 20.004-.004z"></path></g></g><defs data-v-fde0c5aa=""><!----></defs><g data-v-fde0c5aa="" id="e078415a-134f-400f-848d-87cb6bbae29e" fill="#ffffff" transform="matrix(0.35743040686644656,0,0,0.35743040686644656,127.11810288698868,167.80658789426576)"><path d="M10.54 5.74L10.54 5.74L10.54 5.74Q10.58 5.98 10.61 6.07L10.61 6.07L10.61 6.07Q10.63 6.16 10.63 6.31L10.63 6.31L10.63 6.31Q10.63 6.78 10.42 7.18L10.42 7.18L10.42 7.18Q10.22 7.57 9.87 7.74L9.87 7.74L9.87 7.74Q9.59 7.36 9.18 7.09L9.18 7.09L9.18 7.09Q8.78 6.82 8.29 6.64L8.29 6.64L8.29 6.64Q7.81 6.47 7.29 6.38L7.29 6.38L7.29 6.38Q6.78 6.30 6.29 6.30L6.29 6.30L6.29 6.30Q5.80 6.30 5.37 6.38L5.37 6.38L5.37 6.38Q4.94 6.45 4.61 6.59L4.61 6.59L4.61 6.59Q4.28 6.72 4.09 6.92L4.09 6.92L4.09 6.92Q3.91 7.11 3.91 7.36L3.91 7.36L3.91 7.36Q3.95 7.67 4.28 7.99L4.28 7.99L4.28 7.99Q4.62 8.30 5.11 8.60L5.11 8.60L5.11 8.60Q5.60 8.90 6.20 9.20L6.20 9.20L6.20 9.20Q6.79 9.49 7.36 9.76L7.36 9.76L7.36 9.76Q8.08 10.09 8.60 10.38L8.60 10.38L8.60 10.38Q9.11 10.67 9.45 11.01L9.45 11.01L9.45 11.01Q9.79 11.35 9.95 11.79L9.95 11.79L9.95 11.79Q10.12 12.22 10.12 12.84L10.12 12.84L10.12 12.84Q10.12 13.55 9.88 14.18L9.88 14.18L9.88 14.18Q9.65 14.80 9.19 15.26L9.19 15.26L9.19 15.26Q8.74 15.72 8.09 15.98L8.09 15.98L8.09 15.98Q7.45 16.24 6.65 16.24L6.65 16.24L6.65 16.24Q5.87 16.24 4.96 16.00L4.96 16.00L4.96 16.00Q4.05 15.76 3.25 15.35L3.25 15.35L3.25 15.35Q2.46 14.94 1.94 14.40L1.94 14.40L1.94 14.40Q1.41 13.86 1.41 13.26L1.41 13.26L1.41 13.26Q1.41 12.98 1.57 12.54L1.57 12.54L1.57 12.54Q1.74 12.11 2.16 11.63L2.16 11.63L2.16 11.63Q2.20 12.05 2.61 12.63L2.61 12.63L2.61 12.63Q3.02 13.20 3.85 13.69L3.85 13.69L3.85 13.69Q4.62 14.14 5.44 14.34L5.44 14.34L5.44 14.34Q6.26 14.55 6.97 14.55L6.97 14.55L6.97 14.55Q7.76 14.55 8.25 14.35L8.25 14.35L8.25 14.35Q8.74 14.15 9.02 13.88L9.02 13.88L9.02 13.88Q9.30 13.61 9.41 13.33L9.41 13.33L9.41 13.33Q9.52 13.05 9.53 12.88L9.53 12.88L9.53 12.88Q9.52 12.60 9.28 12.34L9.28 12.34L9.28 12.34Q9.03 12.08 8.62 11.84L8.62 11.84L8.62 11.84Q8.20 11.59 7.66 11.34L7.66 11.34L7.66 11.34Q7.11 11.09 6.52 10.84L6.52 10.84L6.52 10.84Q5.64 10.44 5.00 10.10L5.00 10.10L5.00 10.10Q4.37 9.76 3.96 9.40L3.96 9.40L3.96 9.40Q3.54 9.04 3.35 8.65L3.35 8.65L3.35 8.65Q3.16 8.26 3.16 7.76L3.16 7.76L3.16 7.76Q3.16 6.97 3.64 6.27L3.64 6.27L3.64 6.27Q4.12 5.57 5.01 5.21L5.01 5.21L5.01 5.21Q5.46 5.01 5.97 4.93L5.97 4.93L5.97 4.93Q6.48 4.84 6.97 4.84L6.97 4.84L6.97 4.84Q7.90 4.84 8.78 5.10L8.78 5.10L8.78 5.10Q9.66 5.35 10.54 5.74ZM27.78 7.63L27.78 7.63L27.78 7.63Q27.78 8.40 27.39 9.10L27.39 9.10L27.39 9.10Q27.01 9.80 26.36 10.32L26.36 10.32L26.36 10.32Q25.70 10.85 24.83 11.16L24.83 11.16L24.83 11.16Q23.95 11.47 22.97 11.47L22.97 11.47L22.97 11.47Q22.62 11.47 22.42 11.38L22.42 11.38L22.42 11.38Q22.22 11.28 21.97 11.02L21.97 11.02L21.97 11.02Q21.27 12.54 20.82 13.82L20.82 13.82L20.82 13.82Q20.38 15.11 20.13 16.31L20.13 16.31L20.13 16.31Q19.60 16.18 19.26 15.87L19.26 15.87L19.26 15.87Q18.93 15.55 18.65 15.08L18.65 15.08L18.65 15.08Q18.79 14.81 18.98 14.38L18.98 14.38L18.98 14.38Q19.18 13.94 19.46 13.31L19.46 13.31L19.46 13.31Q19.74 12.67 20.11 11.78L20.11 11.78L20.11 11.78Q20.48 10.89 20.99 9.70L20.99 9.70L20.99 9.70Q21.21 9.16 21.38 8.75L21.38 8.75L21.38 8.75Q21.55 8.34 21.67 7.99L21.67 7.99L21.67 7.99Q21.80 7.63 21.90 7.28L21.90 7.28L21.90 7.28Q22.01 6.93 22.12 6.51L22.12 6.51L22.12 6.51Q21.46 6.72 20.91 7L20.91 7L20.91 7Q20.36 7.28 19.99 7.59L19.99 7.59L19.99 7.59Q19.87 7.50 19.73 7.34L19.73 7.34L19.73 7.34Q19.60 7.17 19.49 6.96L19.49 6.96L19.49 6.96Q19.38 6.76 19.29 6.55L19.29 6.55L19.29 6.55Q19.21 6.34 19.19 6.17L19.19 6.17L19.19 6.17Q19.60 5.89 20.20 5.66L20.20 5.66L20.20 5.66Q20.80 5.42 21.49 5.24L21.49 5.24L21.49 5.24Q22.18 5.07 22.91 4.97L22.91 4.97L22.91 4.97Q23.65 4.87 24.32 4.87L24.32 4.87L24.32 4.87Q25.12 4.87 25.76 5.07L25.76 5.07L25.76 5.07Q26.40 5.28 26.85 5.64L26.85 5.64L26.85 5.64Q27.30 6.01 27.54 6.51L27.54 6.51L27.54 6.51Q27.78 7.01 27.78 7.63ZM25.28 5.95L25.28 5.95L25.28 5.95Q24.75 5.95 24.19 6.03L24.19 6.03L24.36 6.29L24.36 6.29Q24.22 6.47 24.01 6.83L24.01 6.83L24.01 6.83Q23.80 7.20 23.55 7.71L23.55 7.71L23.55 7.71Q23.30 8.22 22.99 8.85L22.99 8.85L22.99 8.85Q22.69 9.48 22.36 10.18L22.36 10.18L22.36 10.18Q23.45 10.18 24.35 9.97L24.35 9.97L24.35 9.97Q25.24 9.77 25.88 9.41L25.88 9.41L25.88 9.41Q26.52 9.06 26.87 8.58L26.87 8.58L26.87 8.58Q27.23 8.11 27.23 7.56L27.23 7.56L27.23 7.56Q27.23 6.83 26.74 6.39L26.74 6.39L26.74 6.39Q26.25 5.95 25.28 5.95ZM40.01 9.21L40.01 9.21L40.01 9.21Q40.47 9.21 40.73 9.46L40.73 9.46L40.73 9.46Q40.99 9.72 40.99 10.16L40.99 10.16L40.99 10.16Q40.99 10.28 40.97 10.39L40.97 10.39L40.97 10.39Q40.95 10.51 40.92 10.60L40.92 10.60L40.92 10.60Q40.74 10.57 40.52 10.55L40.52 10.55L40.52 10.55Q40.29 10.53 39.98 10.53L39.98 10.53L39.98 10.53Q39.38 10.53 38.77 10.63L38.77 10.63L38.77 10.63Q38.15 10.74 37.59 10.81L37.59 10.81L37.59 10.81Q37.27 11.55 37.00 12.24L37.00 12.24L37.00 12.24Q36.74 12.94 36.55 13.51L36.55 13.51L36.55 13.51Q36.36 14.08 36.25 14.50L36.25 14.50L36.25 14.50Q36.15 14.92 36.13 15.13L36.13 15.13L36.13 15.13Q37.27 14.90 38.42 14.73L38.42 14.73L38.42 14.73Q39.58 14.56 40.85 14.48L40.85 14.48L40.85 14.48Q41.01 14.71 41.11 14.99L41.11 14.99L41.11 14.99Q41.22 15.27 41.22 15.60L41.22 15.60L41.22 15.60Q41.22 15.68 41.22 15.78L41.22 15.78L41.22 15.78Q41.22 15.88 41.19 15.97L41.19 15.97L41.19 15.97Q40.80 15.96 40.36 15.95L40.36 15.95L40.36 15.95Q39.93 15.95 39.23 15.95L39.23 15.95L39.23 15.95Q38.77 15.95 38.35 15.97L38.35 15.97L38.35 15.97Q37.94 15.99 37.52 16.03L37.52 16.03L37.52 16.03Q37.10 16.07 36.63 16.14L36.63 16.14L36.63 16.14Q36.16 16.21 35.57 16.31L35.57 16.31L35.57 16.31Q34.93 16.06 34.33 15.08L34.33 15.08L34.33 15.08Q34.57 14.57 34.99 13.54L34.99 13.54L34.99 13.54Q35.42 12.52 36.08 10.79L36.08 10.79L36.08 10.79Q35.45 10.60 35.25 10.09L35.25 10.09L35.25 10.09Q35.32 10.02 35.66 9.92L35.66 9.92L35.66 9.92Q35.99 9.81 36.48 9.70L36.48 9.70L36.48 9.70Q36.69 9.16 36.84 8.75L36.84 8.75L36.84 8.75Q36.99 8.34 37.10 7.99L37.10 7.99L37.10 7.99Q37.21 7.63 37.30 7.29L37.30 7.29L37.30 7.29Q37.39 6.94 37.48 6.54L37.48 6.54L37.48 6.54Q36.99 6.51 36.71 6.27L36.71 6.27L36.71 6.27Q36.43 6.02 36.43 5.63L36.43 5.63L36.43 5.63Q36.43 5.52 36.46 5.36L36.46 5.36L36.46 5.36Q36.50 5.21 36.54 5.10L36.54 5.10L36.54 5.10Q36.82 5.14 37.08 5.15L37.08 5.15L37.08 5.15Q37.34 5.17 37.76 5.17L37.76 5.17L37.76 5.17Q38.64 5.17 39.41 5.12L39.41 5.12L39.41 5.12Q40.18 5.07 40.80 5.01L40.80 5.01L40.80 5.01Q41.43 4.96 41.87 4.91L41.87 4.91L41.87 4.91Q42.32 4.86 42.56 4.86L42.56 4.86L42.56 4.86Q42.88 4.86 43.13 5.19L43.13 5.19L43.13 5.19Q43.39 5.53 43.51 6.15L43.51 6.15L43.51 6.15Q43.08 6.10 42.81 6.09L42.81 6.09L42.81 6.09Q42.53 6.08 42.32 6.08L42.32 6.08L42.32 6.08Q41.55 6.08 40.92 6.15L40.92 6.15L40.92 6.15Q40.28 6.23 39.69 6.31L39.69 6.31L39.69 6.31Q39.61 6.44 39.50 6.64L39.50 6.64L39.50 6.64Q39.40 6.83 39.23 7.18L39.23 7.18L39.23 7.18Q39.06 7.53 38.82 8.06L38.82 8.06L38.82 8.06Q38.57 8.60 38.22 9.39L38.22 9.39L38.22 9.39Q38.75 9.31 39.22 9.26L39.22 9.26L39.22 9.26Q39.69 9.21 40.01 9.21ZM55.54 9.21L55.54 9.21L55.54 9.21Q56 9.21 56.26 9.46L56.26 9.46L56.26 9.46Q56.52 9.72 56.52 10.16L56.52 10.16L56.52 10.16Q56.52 10.28 56.50 10.39L56.50 10.39L56.50 10.39Q56.48 10.51 56.45 10.60L56.45 10.60L56.45 10.60Q56.27 10.57 56.04 10.55L56.04 10.55L56.04 10.55Q55.82 10.53 55.51 10.53L55.51 10.53L55.51 10.53Q54.91 10.53 54.29 10.63L54.29 10.63L54.29 10.63Q53.68 10.74 53.12 10.81L53.12 10.81L53.12 10.81Q52.79 11.55 52.53 12.24L52.53 12.24L52.53 12.24Q52.26 12.94 52.07 13.51L52.07 13.51L52.07 13.51Q51.88 14.08 51.78 14.50L51.78 14.50L51.78 14.50Q51.67 14.92 51.66 15.13L51.66 15.13L51.66 15.13Q52.79 14.90 53.95 14.73L53.95 14.73L53.95 14.73Q55.10 14.56 56.38 14.48L56.38 14.48L56.38 14.48Q56.53 14.71 56.64 14.99L56.64 14.99L56.64 14.99Q56.74 15.27 56.74 15.60L56.74 15.60L56.74 15.60Q56.74 15.68 56.74 15.78L56.74 15.78L56.74 15.78Q56.74 15.88 56.71 15.97L56.71 15.97L56.71 15.97Q56.32 15.96 55.89 15.95L55.89 15.95L55.89 15.95Q55.45 15.95 54.75 15.95L54.75 15.95L54.75 15.95Q54.29 15.95 53.88 15.97L53.88 15.97L53.88 15.97Q53.47 15.99 53.05 16.03L53.05 16.03L53.05 16.03Q52.63 16.07 52.16 16.14L52.16 16.14L52.16 16.14Q51.69 16.21 51.10 16.31L51.10 16.31L51.10 16.31Q50.46 16.06 49.85 15.08L49.85 15.08L49.85 15.08Q50.09 14.57 50.52 13.54L50.52 13.54L50.52 13.54Q50.95 12.52 51.60 10.79L51.60 10.79L51.60 10.79Q50.97 10.60 50.78 10.09L50.78 10.09L50.78 10.09Q50.85 10.02 51.18 9.92L51.18 9.92L51.18 9.92Q51.52 9.81 52.01 9.70L52.01 9.70L52.01 9.70Q52.22 9.16 52.37 8.75L52.37 8.75L52.37 8.75Q52.51 8.34 52.63 7.99L52.63 7.99L52.63 7.99Q52.74 7.63 52.83 7.29L52.83 7.29L52.83 7.29Q52.92 6.94 53.00 6.54L53.00 6.54L53.00 6.54Q52.51 6.51 52.23 6.27L52.23 6.27L52.23 6.27Q51.95 6.02 51.95 5.63L51.95 5.63L51.95 5.63Q51.95 5.52 51.99 5.36L51.99 5.36L51.99 5.36Q52.02 5.21 52.07 5.10L52.07 5.10L52.07 5.10Q52.35 5.14 52.60 5.15L52.60 5.15L52.60 5.15Q52.86 5.17 53.28 5.17L53.28 5.17L53.28 5.17Q54.17 5.17 54.94 5.12L54.94 5.12L54.94 5.12Q55.71 5.07 56.33 5.01L56.33 5.01L56.33 5.01Q56.95 4.96 57.40 4.91L57.40 4.91L57.40 4.91Q57.85 4.86 58.09 4.86L58.09 4.86L58.09 4.86Q58.41 4.86 58.66 5.19L58.66 5.19L58.66 5.19Q58.91 5.53 59.04 6.15L59.04 6.15L59.04 6.15Q58.60 6.10 58.33 6.09L58.33 6.09L58.33 6.09Q58.06 6.08 57.85 6.08L57.85 6.08L57.85 6.08Q57.08 6.08 56.44 6.15L56.44 6.15L56.44 6.15Q55.80 6.23 55.22 6.31L55.22 6.31L55.22 6.31Q55.13 6.44 55.03 6.64L55.03 6.64L55.03 6.64Q54.92 6.83 54.75 7.18L54.75 7.18L54.75 7.18Q54.59 7.53 54.34 8.06L54.34 8.06L54.34 8.06Q54.10 8.60 53.75 9.39L53.75 9.39L53.75 9.39Q54.28 9.31 54.75 9.26L54.75 9.26L54.75 9.26Q55.22 9.21 55.54 9.21ZM65.72 12.43L65.72 12.43L65.72 12.43Q65.72 11.45 65.95 10.51L65.95 10.51L65.95 10.51Q66.18 9.56 66.60 8.71L66.60 8.71L66.60 8.71Q67.02 7.87 67.60 7.16L67.60 7.16L67.60 7.16Q68.18 6.45 68.87 5.94L68.87 5.94L68.87 5.94Q69.57 5.42 70.35 5.13L70.35 5.13L70.35 5.13Q71.13 4.84 71.96 4.84L71.96 4.84L71.96 4.84Q72.93 4.84 73.46 5.25L73.46 5.25L73.46 5.25Q74.00 5.66 74.00 6.38L74.00 6.38L74.00 6.38Q74.00 6.66 73.93 6.96L73.93 6.96L73.93 6.96Q73.85 7.25 73.70 7.54L73.70 7.54L73.70 7.54Q73.56 7.83 73.36 8.09L73.36 8.09L73.36 8.09Q73.16 8.36 72.93 8.55L72.93 8.55L72.93 8.55Q72.56 8.50 72.30 8.22L72.30 8.22L72.30 8.22Q72.03 7.95 71.96 7.59L71.96 7.59L71.96 7.59Q72.45 7.18 72.74 6.74L72.74 6.74L72.74 6.74Q73.02 6.30 73.02 5.94L73.02 5.94L73.02 5.94Q73.02 5.32 72.25 5.32L72.25 5.32L72.25 5.32Q71.93 5.32 71.59 5.45L71.59 5.45L71.59 5.45Q71.25 5.59 70.90 5.82L70.90 5.82L70.90 5.82Q70.55 6.06 70.22 6.40L70.22 6.40L70.22 6.40Q69.89 6.73 69.61 7.14L69.61 7.14L69.61 7.14Q67.66 9.94 67.66 12.87L67.66 12.87L67.66 12.87Q67.66 13.90 67.98 14.53L67.98 14.53L67.98 14.53Q68.31 15.16 68.84 15.27L68.84 15.27L68.84 15.27Q69.44 15.13 70.36 14.50L70.36 14.50L70.36 14.50Q71.29 13.87 72.38 12.87L72.38 12.87L72.38 12.87Q72.52 13.01 72.55 13.16L72.55 13.16L72.55 13.16Q72.14 13.69 71.71 14.18L71.71 14.18L71.71 14.18Q71.27 14.67 70.85 15.08L70.85 15.08L70.85 15.08Q70.42 15.48 70.01 15.79L70.01 15.79L70.01 15.79Q69.59 16.10 69.24 16.27L69.24 16.27L69.24 16.27Q67.51 16.24 66.61 15.27L66.61 15.27L66.61 15.27Q65.72 14.31 65.72 12.43ZM86.06 14.36L86.06 14.36L86.06 14.36Q86.06 13.78 86.25 12.85L86.25 12.85L86.25 12.85Q86.45 11.93 86.77 10.88L86.77 10.88L86.77 10.88Q85.85 10.95 84.92 11.06L84.92 11.06L84.92 11.06Q83.99 11.17 83.30 11.19L83.30 11.19L83.30 11.19Q82.67 12.66 82.30 13.89L82.30 13.89L82.30 13.89Q81.93 15.13 81.72 16.31L81.72 16.31L81.72 16.31Q81.19 16.18 80.84 15.87L80.84 15.87L80.84 15.87Q80.49 15.55 80.19 15.08L80.19 15.08L80.19 15.08Q80.30 14.85 80.45 14.50L80.45 14.50L80.45 14.50Q80.60 14.15 80.80 13.66L80.80 13.66L80.80 13.66Q81.00 13.16 81.26 12.50L81.26 12.50L81.26 12.50Q81.52 11.83 81.86 10.95L81.86 10.95L81.86 10.95Q81.40 10.75 81.24 10.40L81.24 10.40L81.24 10.40Q81.31 10.35 81.56 10.28L81.56 10.28L81.56 10.28Q81.80 10.22 82.17 10.15L82.17 10.15L82.35 9.70L82.35 9.70Q82.64 8.95 82.83 8.43L82.83 8.43L82.83 8.43Q83.02 7.91 83.15 7.41L83.15 7.41L83.15 7.41Q83.29 6.92 83.41 6.31L83.41 6.31L83.41 6.31Q83.52 5.71 83.69 4.79L83.69 4.79L83.69 4.79Q84.28 4.90 84.76 5.31L84.76 5.31L84.76 5.31Q85.25 5.71 85.60 6.29L85.60 6.29L85.60 6.29Q85.47 6.45 85.29 6.79L85.29 6.79L85.29 6.79Q85.11 7.13 84.89 7.59L84.89 7.59L84.89 7.59Q84.67 8.06 84.42 8.64L84.42 8.64L84.42 8.64Q84.17 9.23 83.87 9.87L83.87 9.87L83.87 9.87Q84.74 9.76 85.63 9.66L85.63 9.66L85.63 9.66Q86.52 9.56 87.21 9.52L87.21 9.52L87.21 9.52Q87.46 8.79 87.73 8.10L87.73 8.10L87.73 8.10Q88.00 7.41 88.27 6.83L88.27 6.83L88.27 6.83Q88.54 6.26 88.78 5.82L88.78 5.82L88.78 5.82Q89.03 5.39 89.22 5.18L89.22 5.18L89.22 5.18Q89.36 5.19 89.59 5.29L89.59 5.29L89.59 5.29Q89.82 5.38 90.06 5.50L90.06 5.50L90.06 5.50Q90.30 5.63 90.50 5.78L90.50 5.78L90.50 5.78Q90.69 5.92 90.76 6.05L90.76 6.05L90.76 6.05Q90.51 6.29 90.26 6.66L90.26 6.66L90.26 6.66Q90.01 7.04 89.76 7.53L89.76 7.53L89.76 7.53Q89.52 8.02 89.28 8.60L89.28 8.60L89.28 8.60Q89.04 9.17 88.83 9.79L88.83 9.79L88.83 9.79Q89.11 10.04 89.11 10.42L89.11 10.42L89.11 10.42Q89.11 10.68 89.00 10.91L89.00 10.91L89.00 10.91Q88.87 10.88 88.75 10.87L88.75 10.87L88.75 10.87Q88.62 10.86 88.48 10.85L88.48 10.85L88.48 10.85Q88.24 11.61 88.05 12.35L88.05 12.35L88.05 12.35Q87.85 13.09 87.72 13.76L87.72 13.76L87.72 13.76Q87.58 14.43 87.51 14.99L87.51 14.99L87.51 14.99Q87.43 15.55 87.43 15.93L87.43 15.93L87.43 15.93Q87.43 16.07 87.44 16.16L87.44 16.16L87.44 16.16Q87.44 16.24 87.46 16.30L87.46 16.30L87.46 16.30Q87.15 16.28 87.01 16.19L87.01 16.19L87.01 16.19Q86.87 16.10 86.80 16.00L86.80 16.00L86.80 16.00Q86.73 15.89 86.67 15.79L86.67 15.79L86.67 15.79Q86.62 15.68 86.49 15.62L86.49 15.62L86.49 15.62Q86.39 15.58 86.31 15.43L86.31 15.43L86.31 15.43Q86.23 15.27 86.17 15.08L86.17 15.08L86.17 15.08Q86.11 14.88 86.09 14.69L86.09 14.69L86.09 14.69Q86.06 14.49 86.06 14.36ZM112.59 14.38L112.59 14.38L112.59 14.38Q112.94 14.98 112.94 15.54L112.94 15.54L112.94 15.54Q112.94 15.67 112.92 15.77L112.92 15.77L112.92 15.77Q112.90 15.88 112.87 15.99L112.87 15.99L112.87 15.99Q112.63 15.96 112.37 15.95L112.37 15.95L112.37 15.95Q112.11 15.93 111.83 15.93L111.83 15.93L111.83 15.93Q111.50 15.93 111.15 15.95L111.15 15.95L111.15 15.95Q110.81 15.97 110.39 16.02L110.39 16.02L110.39 16.02Q109.97 16.06 109.45 16.13L109.45 16.13L109.45 16.13Q108.93 16.20 108.25 16.31L108.25 16.31L108.25 16.31Q107.93 16.20 107.60 15.87L107.60 15.87L107.60 15.87Q107.28 15.54 107.00 15.08L107.00 15.08L107.00 15.08Q107.14 14.77 107.35 14.31L107.35 14.31L107.35 14.31Q107.56 13.86 107.84 13.21L107.84 13.21L107.84 13.21Q108.12 12.56 108.46 11.68L108.46 11.68L108.46 11.68Q108.81 10.81 109.20 9.66L109.20 9.66L109.20 9.66Q109.45 8.90 109.63 8.33L109.63 8.33L109.63 8.33Q109.82 7.76 109.96 7.22L109.96 7.22L109.96 7.22Q110.11 6.68 110.25 6.09L110.25 6.09L110.25 6.09Q110.39 5.50 110.56 4.73L110.56 4.73L110.56 4.73Q111.12 4.84 111.53 5.14L111.53 5.14L111.53 5.14Q111.94 5.45 112.32 6.01L112.32 6.01L112.32 6.01Q112.21 6.19 112.03 6.59L112.03 6.59L112.03 6.59Q111.85 7 111.60 7.58L111.60 7.58L111.60 7.58Q111.36 8.16 111.06 8.90L111.06 8.90L111.06 8.90Q110.77 9.63 110.45 10.47L110.45 10.47L110.45 10.47Q110.14 11.30 109.84 12.03L109.84 12.03L109.84 12.03Q109.55 12.75 109.32 13.34L109.32 13.34L109.32 13.34Q109.09 13.93 108.95 14.35L108.95 14.35L108.95 14.35Q108.81 14.77 108.81 14.98L108.81 14.98L108.81 14.98Q109.03 14.97 109.21 14.95L109.21 14.95L109.21 14.95Q109.40 14.94 109.59 14.90L109.59 14.90L109.59 14.90Q109.79 14.87 110.02 14.82L110.02 14.82L110.02 14.82Q110.25 14.77 110.57 14.69L110.57 14.69L110.57 14.69Q110.85 14.62 111.09 14.57L111.09 14.57L111.09 14.57Q111.33 14.52 111.56 14.48L111.56 14.48L111.56 14.48Q111.79 14.45 112.03 14.43L112.03 14.43L112.03 14.43Q112.28 14.41 112.59 14.38ZM122.01 16.24L122.01 16.24L122.01 16.24Q121.34 16.04 121.08 15.85L121.08 15.85L121.08 15.85Q120.82 15.65 120.82 15.36L120.82 15.36L120.82 15.36Q120.82 15.13 120.95 14.73L120.95 14.73L120.95 14.73Q121.07 14.32 121.32 13.77L121.32 13.77L121.32 13.77Q121.56 13.22 121.91 12.54L121.91 12.54L121.91 12.54Q122.25 11.87 122.68 11.10L122.68 11.10L122.68 11.10Q122.32 11.09 122.03 11.08L122.03 11.08L122.03 11.08Q121.74 11.07 121.56 11.07L121.56 11.07L121.56 11.07Q121.65 10.86 122.04 10.71L122.04 10.71L122.04 10.71Q122.43 10.56 123.07 10.44L123.07 10.44L123.07 10.44Q123.62 9.53 124.24 8.71L124.24 8.71L124.24 8.71Q124.87 7.88 125.50 7.19L125.50 7.19L125.50 7.19Q126.13 6.50 126.76 5.97L126.76 5.97L126.76 5.97Q127.39 5.45 127.96 5.14L127.96 5.14L127.96 5.14Q127.97 5.04 127.98 4.97L127.98 4.97L127.98 4.97Q127.99 4.90 127.99 4.87L127.99 4.87L127.99 4.87Q128.18 4.87 128.51 4.97L128.51 4.97L128.51 4.97Q128.84 5.07 129.16 5.21L129.16 5.21L129.16 5.21Q129.47 5.35 129.72 5.49L129.72 5.49L129.72 5.49Q129.96 5.64 129.99 5.74L129.99 5.74L129.99 5.74Q129.53 6.55 129.08 8.17L129.08 8.17L129.08 8.17Q128.63 9.79 128.34 12.04L128.34 12.04L128.34 12.04Q128.27 12.60 128.22 13.31L128.22 13.31L128.22 13.31Q128.17 14.03 128.17 14.91L128.17 14.91L128.17 14.91Q128.17 15.22 128.17 15.54L128.17 15.54L128.17 15.54Q128.17 15.86 128.20 16.21L128.20 16.21L128.20 16.21Q128.17 16.23 128.14 16.23L128.14 16.23L128.14 16.23Q128.11 16.23 128.03 16.23L128.03 16.23L128.03 16.23Q127.83 16.23 127.57 16.16L127.57 16.16L127.57 16.16Q127.32 16.10 127.07 16.01L127.07 16.01L127.07 16.01Q126.83 15.92 126.65 15.81L126.65 15.81L126.65 15.81Q126.48 15.69 126.43 15.61L126.43 15.61L126.43 15.61Q126.42 15.43 126.42 15.25L126.42 15.25L126.42 15.25Q126.42 15.08 126.42 14.88L126.42 14.88L126.42 14.88Q126.42 14.01 126.48 13.12L126.48 13.12L126.48 13.12Q126.55 12.22 126.70 11.27L126.70 11.27L126.70 11.27Q126.50 11.26 126.18 11.23L126.18 11.23L126.18 11.23Q125.86 11.21 125.46 11.20L125.46 11.20L125.46 11.20Q125.06 11.19 124.61 11.16L124.61 11.16L124.61 11.16Q124.15 11.14 123.72 11.13L123.72 11.13L123.72 11.13Q123.38 11.76 123.09 12.38L123.09 12.38L123.09 12.38Q122.79 13.01 122.58 13.64L122.58 13.64L122.58 13.64Q122.35 14.31 122.20 14.98L122.20 14.98L122.20 14.98Q122.05 15.65 122.01 16.24ZM127.41 7.83L127.41 7.83L127.41 7.83Q127.47 7.63 127.55 7.29L127.55 7.29L127.55 7.29Q127.62 6.94 127.69 6.57L127.69 6.57L127.69 6.57Q127.34 6.69 126.92 7.03L126.92 7.03L126.92 7.03Q126.49 7.36 126.03 7.86L126.03 7.86L126.03 7.86Q125.58 8.36 125.11 8.98L125.11 8.98L125.11 8.98Q124.64 9.60 124.21 10.30L124.21 10.30L124.21 10.30Q125.38 10.21 126.88 10.18L126.88 10.18L126.88 10.18Q126.99 9.59 127.13 9.01L127.13 9.01L127.13 9.01Q127.26 8.43 127.41 7.83ZM138.61 16.24L138.61 16.24L138.61 16.24Q137.82 16.00 137.54 15.79L137.54 15.79L137.54 15.79Q137.26 15.57 137.26 15.19L137.26 15.19L137.26 15.19Q137.26 14.77 137.45 14.01L137.45 14.01L137.45 14.01Q137.65 13.24 137.96 12.31L137.96 12.31L137.96 12.31Q138.28 11.37 138.68 10.35L138.68 10.35L138.68 10.35Q139.09 9.32 139.51 8.39L139.51 8.39L139.51 8.39Q139.93 7.45 140.33 6.67L140.33 6.67L140.33 6.67Q140.73 5.89 141.04 5.46L141.04 5.46L140.94 4.87L140.94 4.87Q141.13 4.87 141.48 4.97L141.48 4.97L141.48 4.97Q141.83 5.07 142.19 5.21L142.19 5.21L142.19 5.21Q142.55 5.35 142.82 5.49L142.82 5.49L142.82 5.49Q143.09 5.64 143.12 5.74L143.12 5.74L143.12 5.74Q143.05 6.08 143.01 6.76L143.01 6.76L143.01 6.76Q142.97 7.43 142.97 8.20L142.97 8.20L142.97 8.20Q142.97 9.73 143.09 11.19L143.09 11.19L143.09 11.19Q143.21 12.66 143.64 14.17L143.64 14.17L143.64 14.17Q143.86 13.05 144.12 11.94L144.12 11.94L144.12 11.94Q144.38 10.82 144.66 9.81L144.66 9.81L144.66 9.81Q144.94 8.79 145.22 7.92L145.22 7.92L145.22 7.92Q145.50 7.06 145.76 6.40L145.76 6.40L145.76 6.40Q146.02 5.75 146.24 5.38L146.24 5.38L146.24 5.38Q146.47 5.01 146.65 4.98L146.65 4.98L146.65 4.98Q146.80 5.01 146.99 5.10L146.99 5.10L146.99 5.10Q147.17 5.19 147.34 5.32L147.34 5.32L147.34 5.32Q147.50 5.45 147.64 5.60L147.64 5.60L147.64 5.60Q147.78 5.75 147.87 5.91L147.87 5.91L147.87 5.91Q147.42 6.09 146.98 6.76L146.98 6.76L146.98 6.76Q146.54 7.43 146.14 8.39L146.14 8.39L146.14 8.39Q145.74 9.35 145.40 10.47L145.40 10.47L145.40 10.47Q145.05 11.59 144.80 12.68L144.80 12.68L144.80 12.68Q144.54 13.76 144.39 14.69L144.39 14.69L144.39 14.69Q144.24 15.61 144.23 16.17L144.23 16.17L144.23 16.17Q144.23 16.20 144.24 16.21L144.24 16.21L144.24 16.21Q144.20 16.23 144.15 16.23L144.15 16.23L144.15 16.23Q144.10 16.23 144.06 16.23L144.06 16.23L144.06 16.23Q143.42 16.23 142.92 16.07L142.92 16.07L142.92 16.07Q142.42 15.90 142.27 15.61L142.27 15.61L142.27 15.61Q141.97 14.43 141.78 13.34L141.78 13.34L141.78 13.34Q141.58 12.25 141.45 11.16L141.45 11.16L141.45 11.16Q141.32 10.07 141.24 8.95L141.24 8.95L141.24 8.95Q141.16 7.84 141.12 6.62L141.12 6.62L141.12 6.62Q140.85 7.04 140.56 7.72L140.56 7.72L140.56 7.72Q140.27 8.40 139.99 9.21L139.99 9.21L139.99 9.21Q139.71 10.02 139.45 10.92L139.45 10.92L139.45 10.92Q139.19 11.82 138.99 12.67L138.99 12.67L138.99 12.67Q138.80 13.52 138.68 14.29L138.68 14.29L138.68 14.29Q138.57 15.05 138.57 15.61L138.57 15.61L138.57 15.61Q138.57 15.90 138.58 16.03L138.58 16.03L138.58 16.03Q138.59 16.16 138.61 16.24ZM161.69 10.72L161.69 10.72L161.69 10.72Q162.05 10.72 162.26 10.98L162.26 10.98L162.26 10.98Q162.47 11.23 162.47 11.68L162.47 11.68L162.47 11.68Q162.47 11.79 162.46 11.91L162.46 11.91L162.46 11.91Q162.44 12.03 162.41 12.11L162.41 12.11L162.41 12.11Q162.12 12.04 161.77 12.03L161.77 12.03L161.77 12.03Q161.69 12.64 161.32 13.32L161.32 13.32L161.32 13.32Q160.96 14 160.44 14.60L160.44 14.60L160.44 14.60Q159.92 15.19 159.31 15.64L159.31 15.64L159.31 15.64Q158.69 16.09 158.09 16.24L158.09 16.24L158.09 16.24Q156.21 16.20 155.35 15.27L155.35 15.27L155.35 15.27Q154.49 14.34 154.49 12.36L154.49 12.36L154.49 12.36Q154.49 10.92 155.02 9.57L155.02 9.57L155.02 9.57Q155.55 8.22 156.44 7.17L156.44 7.17L156.44 7.17Q157.32 6.12 158.46 5.48L158.46 5.48L158.46 5.48Q159.60 4.84 160.83 4.84L160.83 4.84L160.83 4.84Q161.80 4.84 162.34 5.25L162.34 5.25L162.34 5.25Q162.88 5.66 162.88 6.40L162.88 6.40L162.88 6.40Q162.88 6.89 162.65 7.31L162.65 7.31L162.65 7.31Q162.41 7.73 161.88 8.22L161.88 8.22L161.88 8.22Q161.56 8.12 161.32 7.88L161.32 7.88L161.32 7.88Q161.08 7.63 161.03 7.31L161.03 7.31L161.03 7.31Q161.50 6.96 161.70 6.66L161.70 6.66L161.70 6.66Q161.90 6.37 161.90 5.96L161.90 5.96L161.90 5.96Q161.90 5.32 161.13 5.32L161.13 5.32L161.13 5.32Q160.50 5.32 159.78 5.79L159.78 5.79L159.78 5.79Q159.05 6.26 158.33 7.14L158.33 7.14L158.33 7.14Q157.29 8.39 156.81 9.71L156.81 9.71L156.81 9.71Q156.34 11.03 156.34 12.68L156.34 12.68L156.34 12.68Q156.34 13.30 156.46 13.80L156.46 13.80L156.46 13.80Q156.59 14.31 156.80 14.69L156.80 14.69L156.80 14.69Q157.01 15.06 157.30 15.29L157.30 15.29L157.30 15.29Q157.58 15.51 157.92 15.54L157.92 15.54L157.92 15.54Q158.37 15.44 158.82 15.09L158.82 15.09L158.82 15.09Q159.26 14.73 159.64 14.25L159.64 14.25L159.64 14.25Q160.01 13.76 160.27 13.21L160.27 13.21L160.27 13.21Q160.52 12.66 160.58 12.15L160.58 12.15L160.58 12.15Q160.19 12.24 159.83 12.31L159.83 12.31L159.83 12.31Q159.47 12.39 159.15 12.39L159.15 12.39L159.15 12.39Q158.73 12.39 158.42 12.18L158.42 12.18L158.42 12.18Q158.10 11.97 157.99 11.61L157.99 11.61L157.99 11.61Q158.24 11.47 158.73 11.31L158.73 11.31L158.73 11.31Q159.21 11.16 159.75 11.03L159.75 11.03L159.75 11.03Q160.30 10.89 160.83 10.81L160.83 10.81L160.83 10.81Q161.35 10.72 161.69 10.72ZM175.41 5.75L175.41 5.75L175.41 5.75Q174.79 6.58 174.29 7.57L174.29 7.57L174.29 7.57Q173.78 8.57 173.43 9.61L173.43 9.61L173.43 9.61Q173.07 10.65 172.88 11.67L172.88 11.67L172.88 11.67Q172.69 12.68 172.69 13.57L172.69 13.57L172.69 13.57Q172.69 14.66 173.01 15.15L173.01 15.15L173.01 15.15Q173.33 15.64 174.12 15.64L174.12 15.64L174.12 15.64Q175.03 15.64 175.71 15.00L175.71 15.00L175.71 15.00Q176.40 14.36 177.00 13.24L177.00 13.24L177.00 13.24Q177.39 12.52 177.67 11.65L177.67 11.65L177.67 11.65Q177.95 10.78 178.13 9.86L178.13 9.86L178.13 9.86Q178.30 8.95 178.39 8.02L178.39 8.02L178.39 8.02Q178.47 7.08 178.47 6.23L178.47 6.23L178.47 6.23Q178.47 5.68 178.46 5.43L178.46 5.43L178.46 5.43Q178.44 5.18 178.42 5.03L178.42 5.03L178.42 5.03Q178.46 5.03 178.63 5.05L178.63 5.05L178.63 5.05Q178.79 5.08 179.01 5.12L179.01 5.12L179.01 5.12Q179.23 5.17 179.45 5.24L179.45 5.24L179.45 5.24Q179.66 5.31 179.82 5.39L179.82 5.39L179.82 5.39Q179.75 6.45 179.56 7.59L179.56 7.59L179.56 7.59Q179.37 8.72 179.06 9.83L179.06 9.83L179.06 9.83Q178.75 10.93 178.35 11.96L178.35 11.96L178.35 11.96Q177.94 12.98 177.44 13.79L177.44 13.79L177.44 13.79Q176.69 14.99 175.77 15.67L175.77 15.67L175.77 15.67Q174.85 16.35 173.59 16.35L173.59 16.35L173.59 16.35Q172.30 16.35 171.58 15.60L171.58 15.60L171.58 15.60Q170.87 14.85 170.87 13.33L170.87 13.33L170.87 13.33Q170.87 12.45 171.07 11.33L171.07 11.33L171.07 11.33Q171.26 10.22 171.59 9.07L171.59 9.07L171.59 9.07Q171.92 7.91 172.35 6.81L172.35 6.81L172.35 6.81Q172.79 5.71 173.26 4.84L173.26 4.84L173.26 4.84Q173.50 4.86 173.82 4.94L173.82 4.94L173.82 4.94Q174.15 5.03 174.45 5.16L174.45 5.16L174.45 5.16Q174.76 5.29 175.02 5.45L175.02 5.45L175.02 5.45Q175.28 5.61 175.41 5.75ZM187.42 16.24L187.42 16.24L187.42 16.24Q186.75 16.04 186.49 15.85L186.49 15.85L186.49 15.85Q186.23 15.65 186.23 15.36L186.23 15.36L186.23 15.36Q186.23 15.13 186.35 14.73L186.35 14.73L186.35 14.73Q186.48 14.32 186.73 13.77L186.73 13.77L186.73 13.77Q186.97 13.22 187.31 12.54L187.31 12.54L187.31 12.54Q187.66 11.87 188.09 11.10L188.09 11.10L188.09 11.10Q187.73 11.09 187.44 11.08L187.44 11.08L187.44 11.08Q187.15 11.07 186.97 11.07L186.97 11.07L186.97 11.07Q187.05 10.86 187.45 10.71L187.45 10.71L187.45 10.71Q187.84 10.56 188.48 10.44L188.48 10.44L188.48 10.44Q189.03 9.53 189.65 8.71L189.65 8.71L189.65 8.71Q190.27 7.88 190.90 7.19L190.90 7.19L190.90 7.19Q191.53 6.50 192.16 5.97L192.16 5.97L192.16 5.97Q192.79 5.45 193.37 5.14L193.37 5.14L193.37 5.14Q193.38 5.04 193.39 4.97L193.39 4.97L193.39 4.97Q193.40 4.90 193.40 4.87L193.40 4.87L193.40 4.87Q193.59 4.87 193.92 4.97L193.92 4.97L193.92 4.97Q194.25 5.07 194.57 5.21L194.57 5.21L194.57 5.21Q194.88 5.35 195.13 5.49L195.13 5.49L195.13 5.49Q195.37 5.64 195.40 5.74L195.40 5.74L195.40 5.74Q194.94 6.55 194.49 8.17L194.49 8.17L194.49 8.17Q194.04 9.79 193.75 12.04L193.75 12.04L193.75 12.04Q193.68 12.60 193.63 13.31L193.63 13.31L193.63 13.31Q193.58 14.03 193.58 14.91L193.58 14.91L193.58 14.91Q193.58 15.22 193.58 15.54L193.58 15.54L193.58 15.54Q193.58 15.86 193.61 16.21L193.61 16.21L193.61 16.21Q193.58 16.23 193.55 16.23L193.55 16.23L193.55 16.23Q193.52 16.23 193.44 16.23L193.44 16.23L193.44 16.23Q193.24 16.23 192.98 16.16L192.98 16.16L192.98 16.16Q192.72 16.10 192.48 16.01L192.48 16.01L192.48 16.01Q192.23 15.92 192.06 15.81L192.06 15.81L192.06 15.81Q191.88 15.69 191.84 15.61L191.84 15.61L191.84 15.61Q191.83 15.43 191.83 15.25L191.83 15.25L191.83 15.25Q191.83 15.08 191.83 14.88L191.83 14.88L191.83 14.88Q191.83 14.01 191.89 13.12L191.89 13.12L191.89 13.12Q191.95 12.22 192.11 11.27L192.11 11.27L192.11 11.27Q191.91 11.26 191.59 11.23L191.59 11.23L191.59 11.23Q191.27 11.21 190.87 11.20L190.87 11.20L190.87 11.20Q190.47 11.19 190.02 11.16L190.02 11.16L190.02 11.16Q189.56 11.14 189.13 11.13L189.13 11.13L189.13 11.13Q188.79 11.76 188.50 12.38L188.50 12.38L188.50 12.38Q188.20 13.01 187.99 13.64L187.99 13.64L187.99 13.64Q187.75 14.31 187.61 14.98L187.61 14.98L187.61 14.98Q187.46 15.65 187.42 16.24ZM192.82 7.83L192.82 7.83L192.82 7.83Q192.88 7.63 192.96 7.29L192.96 7.29L192.96 7.29Q193.03 6.94 193.10 6.57L193.10 6.57L193.10 6.57Q192.75 6.69 192.33 7.03L192.33 7.03L192.33 7.03Q191.90 7.36 191.44 7.86L191.44 7.86L191.44 7.86Q190.99 8.36 190.52 8.98L190.52 8.98L190.52 8.98Q190.05 9.60 189.62 10.30L189.62 10.30L189.62 10.30Q190.79 10.21 192.29 10.18L192.29 10.18L192.29 10.18Q192.40 9.59 192.54 9.01L192.54 9.01L192.54 9.01Q192.67 8.43 192.82 7.83ZM210.32 10.72L210.32 10.72L210.32 10.72Q210.69 10.72 210.90 10.98L210.90 10.98L210.90 10.98Q211.11 11.23 211.11 11.68L211.11 11.68L211.11 11.68Q211.11 11.79 211.09 11.91L211.09 11.91L211.09 11.91Q211.08 12.03 211.05 12.11L211.05 12.11L211.05 12.11Q210.76 12.04 210.41 12.03L210.41 12.03L210.41 12.03Q210.32 12.64 209.96 13.32L209.96 13.32L209.96 13.32Q209.59 14 209.08 14.60L209.08 14.60L209.08 14.60Q208.56 15.19 207.94 15.64L207.94 15.64L207.94 15.64Q207.33 16.09 206.72 16.24L206.72 16.24L206.72 16.24Q204.85 16.20 203.99 15.27L203.99 15.27L203.99 15.27Q203.13 14.34 203.13 12.36L203.13 12.36L203.13 12.36Q203.13 10.92 203.66 9.57L203.66 9.57L203.66 9.57Q204.19 8.22 205.07 7.17L205.07 7.17L205.07 7.17Q205.95 6.12 207.10 5.48L207.10 5.48L207.10 5.48Q208.24 4.84 209.47 4.84L209.47 4.84L209.47 4.84Q210.43 4.84 210.97 5.25L210.97 5.25L210.97 5.25Q211.51 5.66 211.51 6.40L211.51 6.40L211.51 6.40Q211.51 6.89 211.28 7.31L211.28 7.31L211.28 7.31Q211.05 7.73 210.52 8.22L210.52 8.22L210.52 8.22Q210.20 8.12 209.96 7.88L209.96 7.88L209.96 7.88Q209.72 7.63 209.66 7.31L209.66 7.31L209.66 7.31Q210.14 6.96 210.34 6.66L210.34 6.66L210.34 6.66Q210.53 6.37 210.53 5.96L210.53 5.96L210.53 5.96Q210.53 5.32 209.76 5.32L209.76 5.32L209.76 5.32Q209.13 5.32 208.41 5.79L208.41 5.79L208.41 5.79Q207.69 6.26 206.96 7.14L206.96 7.14L206.96 7.14Q205.93 8.39 205.45 9.71L205.45 9.71L205.45 9.71Q204.97 11.03 204.97 12.68L204.97 12.68L204.97 12.68Q204.97 13.30 205.10 13.80L205.10 13.80L205.10 13.80Q205.23 14.31 205.44 14.69L205.44 14.69L205.44 14.69Q205.65 15.06 205.93 15.29L205.93 15.29L205.93 15.29Q206.22 15.51 206.56 15.54L206.56 15.54L206.56 15.54Q207.00 15.44 207.45 15.09L207.45 15.09L207.45 15.09Q207.90 14.73 208.27 14.25L208.27 14.25L208.27 14.25Q208.64 13.76 208.90 13.21L208.90 13.21L208.90 13.21Q209.16 12.66 209.22 12.15L209.22 12.15L209.22 12.15Q208.82 12.24 208.47 12.31L208.47 12.31L208.47 12.31Q208.11 12.39 207.79 12.39L207.79 12.39L207.79 12.39Q207.37 12.39 207.05 12.18L207.05 12.18L207.05 12.18Q206.74 11.97 206.63 11.61L206.63 11.61L206.63 11.61Q206.88 11.47 207.36 11.31L207.36 11.31L207.36 11.31Q207.84 11.16 208.39 11.03L208.39 11.03L208.39 11.03Q208.94 10.89 209.46 10.81L209.46 10.81L209.46 10.81Q209.99 10.72 210.32 10.72ZM224.45 9.21L224.45 9.21L224.45 9.21Q224.91 9.21 225.17 9.46L225.17 9.46L225.17 9.46Q225.43 9.72 225.43 10.16L225.43 10.16L225.43 10.16Q225.43 10.28 225.41 10.39L225.41 10.39L225.41 10.39Q225.39 10.51 225.36 10.60L225.36 10.60L225.36 10.60Q225.18 10.57 224.95 10.55L224.95 10.55L224.95 10.55Q224.73 10.53 224.42 10.53L224.42 10.53L224.42 10.53Q223.82 10.53 223.20 10.63L223.20 10.63L223.20 10.63Q222.59 10.74 222.03 10.81L222.03 10.81L222.03 10.81Q221.70 11.55 221.44 12.24L221.44 12.24L221.44 12.24Q221.17 12.94 220.98 13.51L220.98 13.51L220.98 13.51Q220.79 14.08 220.69 14.50L220.69 14.50L220.69 14.50Q220.58 14.92 220.57 15.13L220.57 15.13L220.57 15.13Q221.70 14.90 222.86 14.73L222.86 14.73L222.86 14.73Q224.01 14.56 225.29 14.48L225.29 14.48L225.29 14.48Q225.44 14.71 225.55 14.99L225.55 14.99L225.55 14.99Q225.65 15.27 225.65 15.60L225.65 15.60L225.65 15.60Q225.65 15.68 225.65 15.78L225.65 15.78L225.65 15.78Q225.65 15.88 225.62 15.97L225.62 15.97L225.62 15.97Q225.23 15.96 224.80 15.95L224.80 15.95L224.80 15.95Q224.36 15.95 223.66 15.95L223.66 15.95L223.66 15.95Q223.20 15.95 222.79 15.97L222.79 15.97L222.79 15.97Q222.38 15.99 221.96 16.03L221.96 16.03L221.96 16.03Q221.54 16.07 221.07 16.14L221.07 16.14L221.07 16.14Q220.60 16.21 220.01 16.31L220.01 16.31L220.01 16.31Q219.37 16.06 218.76 15.08L218.76 15.08L218.76 15.08Q219.00 14.57 219.43 13.54L219.43 13.54L219.43 13.54Q219.86 12.52 220.51 10.79L220.51 10.79L220.51 10.79Q219.88 10.60 219.69 10.09L219.69 10.09L219.69 10.09Q219.76 10.02 220.09 9.92L220.09 9.92L220.09 9.92Q220.43 9.81 220.92 9.70L220.92 9.70L220.92 9.70Q221.13 9.16 221.28 8.75L221.28 8.75L221.28 8.75Q221.42 8.34 221.54 7.99L221.54 7.99L221.54 7.99Q221.65 7.63 221.74 7.29L221.74 7.29L221.74 7.29Q221.83 6.94 221.91 6.54L221.91 6.54L221.91 6.54Q221.42 6.51 221.14 6.27L221.14 6.27L221.14 6.27Q220.86 6.02 220.86 5.63L220.86 5.63L220.86 5.63Q220.86 5.52 220.90 5.36L220.90 5.36L220.90 5.36Q220.93 5.21 220.98 5.10L220.98 5.10L220.98 5.10Q221.26 5.14 221.52 5.15L221.52 5.15L221.52 5.15Q221.77 5.17 222.19 5.17L222.19 5.17L222.19 5.17Q223.08 5.17 223.85 5.12L223.85 5.12L223.85 5.12Q224.62 5.07 225.24 5.01L225.24 5.01L225.24 5.01Q225.86 4.96 226.31 4.91L226.31 4.91L226.31 4.91Q226.76 4.86 227.00 4.86L227.00 4.86L227.00 4.86Q227.32 4.86 227.57 5.19L227.57 5.19L227.57 5.19Q227.82 5.53 227.95 6.15L227.95 6.15L227.95 6.15Q227.51 6.10 227.24 6.09L227.24 6.09L227.24 6.09Q226.97 6.08 226.76 6.08L226.76 6.08L226.76 6.08Q225.99 6.08 225.35 6.15L225.35 6.15L225.35 6.15Q224.71 6.23 224.13 6.31L224.13 6.31L224.13 6.31Q224.04 6.44 223.94 6.64L223.94 6.64L223.94 6.64Q223.83 6.83 223.66 7.18L223.66 7.18L223.66 7.18Q223.50 7.53 223.25 8.06L223.25 8.06L223.25 8.06Q223.01 8.60 222.66 9.39L222.66 9.39L222.66 9.39Q223.19 9.31 223.66 9.26L223.66 9.26L223.66 9.26Q224.13 9.21 224.45 9.21ZM251.38 10.53L251.38 10.53L251.38 10.53Q250.88 10.53 250.66 10.37L250.66 10.37L250.66 10.37Q250.43 10.21 250.43 9.86L250.43 9.86L250.43 9.86Q250.43 9.63 250.52 9.34L250.52 9.34L250.52 9.34Q250.78 9.38 251.03 9.39L251.03 9.39L251.03 9.39Q251.27 9.41 251.62 9.41L251.62 9.41L251.62 9.41Q252.07 9.41 252.37 9.40L252.37 9.40L252.37 9.40Q252.67 9.39 252.88 9.38L252.88 9.38L252.88 9.38Q253.08 9.37 253.20 9.36L253.20 9.36L253.20 9.36Q253.32 9.35 253.41 9.35L253.41 9.35L253.41 9.35Q253.75 9.35 253.90 9.60L253.90 9.60L253.90 9.60Q254.06 9.84 254.20 10.43L254.20 10.43L254.20 10.43Q253.79 10.39 253.53 10.37L253.53 10.37L253.53 10.37Q253.27 10.36 253.08 10.36L253.08 10.36L253.08 10.36Q252.94 10.36 252.83 10.37L252.83 10.37L252.83 10.37Q252.71 10.37 252.62 10.37L252.62 10.37L252.62 10.37Q252.13 11.16 251.49 12.06L251.49 12.06L251.49 12.06Q250.85 12.96 250.12 13.78L250.12 13.78L250.12 13.78Q249.38 14.59 248.58 15.22L248.58 15.22L248.58 15.22Q247.79 15.86 246.99 16.11L246.99 16.11L246.99 16.11Q246.44 16.06 245.99 15.85L245.99 15.85L245.99 15.85Q245.55 15.64 245.21 15.32L245.21 15.32L245.21 15.32Q244.87 15.01 244.68 14.60L244.68 14.60L244.68 14.60Q244.48 14.18 244.45 13.71L244.45 13.71L244.45 13.71Q244.47 13.05 244.73 12.40L244.73 12.40L244.73 12.40Q244.99 11.75 245.39 11.19L245.39 11.19L245.39 11.19Q245.80 10.63 246.31 10.18L246.31 10.18L246.31 10.18Q246.82 9.73 247.34 9.46L247.34 9.46L247.34 9.46Q246.82 9.24 246.60 8.93L246.60 8.93L246.60 8.93Q246.39 8.62 246.39 8.26L246.39 8.26L246.39 8.26Q246.39 7.76 246.74 7.20L246.74 7.20L246.74 7.20Q247.10 6.65 247.63 6.17L247.63 6.17L247.63 6.17Q248.16 5.70 248.77 5.36L248.77 5.36L248.77 5.36Q249.38 5.01 249.89 4.93L249.89 4.93L249.89 4.93Q250.03 4.96 250.29 5.10L250.29 5.10L250.29 5.10Q250.54 5.25 250.80 5.46L250.80 5.46L250.80 5.46Q251.05 5.67 251.25 5.89L251.25 5.89L251.25 5.89Q251.45 6.10 251.48 6.26L251.48 6.26L251.48 6.26Q251.45 6.43 251.36 6.64L251.36 6.64L251.36 6.64Q251.27 6.85 251.13 7.05L251.13 7.05L251.13 7.05Q250.99 7.25 250.84 7.43L250.84 7.43L250.84 7.43Q250.68 7.62 250.53 7.73L250.53 7.73L250.53 7.73Q250.39 7.69 250.36 7.59L250.36 7.59L250.36 7.59Q250.53 7.42 250.68 7.11L250.68 7.11L250.68 7.11Q250.84 6.79 250.84 6.51L250.84 6.51L250.84 6.51Q250.84 6.36 250.77 6.31L250.77 6.31L250.77 6.31Q250.70 6.26 250.54 6.26L250.54 6.26L250.54 6.26Q250.15 6.26 249.68 6.57L249.68 6.57L249.68 6.57Q249.20 6.87 248.79 7.34L248.79 7.34L248.79 7.34Q248.37 7.80 248.09 8.32L248.09 8.32L248.09 8.32Q247.81 8.85 247.81 9.28L247.81 9.28L247.81 9.28Q247.97 9.30 248.19 9.37L248.19 9.37L248.19 9.37Q248.40 9.45 248.61 9.56L248.61 9.56L248.61 9.56Q248.82 9.67 248.98 9.80L248.98 9.80L248.98 9.80Q249.14 9.93 249.19 10.02L249.19 10.02L249.19 10.02Q248.50 10.19 247.92 10.68L247.92 10.68L247.92 10.68Q247.34 11.17 246.92 11.80L246.92 11.80L246.92 11.80Q246.50 12.43 246.27 13.12L246.27 13.12L246.27 13.12Q246.04 13.80 246.04 14.35L246.04 14.35L246.04 14.35Q246.04 14.84 246.25 15.15L246.25 15.15L246.25 15.15Q246.46 15.47 246.90 15.47L246.90 15.47L246.90 15.47Q247.28 15.47 247.72 15.22L247.72 15.22L247.72 15.22Q248.16 14.98 248.63 14.57L248.63 14.57L248.63 14.57Q249.10 14.15 249.57 13.63L249.57 13.63L249.57 13.63Q250.04 13.10 250.48 12.55L250.48 12.55L250.48 12.55Q250.92 12.00 251.31 11.46L251.31 11.46L251.31 11.46Q251.69 10.92 252 10.47L252 10.47L252 10.47Q251.87 10.50 251.73 10.51L251.73 10.51L251.73 10.51Q251.58 10.53 251.38 10.53ZM277.06 9.34L277.06 9.34L277.06 9.34Q277.51 9.34 277.77 9.59L277.77 9.59L277.77 9.59Q278.03 9.84 278.03 10.29L278.03 10.29L278.03 10.29Q278.03 10.40 278.01 10.52L278.01 10.52L278.01 10.52Q278.00 10.64 277.96 10.72L277.96 10.72L277.96 10.72Q277.77 10.70 277.55 10.68L277.55 10.68L277.55 10.68Q277.33 10.65 277.02 10.65L277.02 10.65L277.02 10.65Q276.39 10.65 275.76 10.77L275.76 10.77L275.76 10.77Q275.13 10.88 274.55 10.95L274.55 10.95L274.55 10.95Q273.92 12.43 273.52 13.73L273.52 13.73L273.52 13.73Q273.11 15.04 272.89 16.31L272.89 16.31L272.89 16.31Q272.41 16.20 272.05 15.90L272.05 15.90L272.05 15.90Q271.68 15.61 271.36 15.08L271.36 15.08L271.36 15.08Q271.46 14.85 271.60 14.54L271.60 14.54L271.60 14.54Q271.74 14.22 271.94 13.74L271.94 13.74L271.94 13.74Q272.13 13.26 272.40 12.56L272.40 12.56L272.40 12.56Q272.68 11.87 273.06 10.91L273.06 10.91L273.06 10.91Q272.47 10.71 272.29 10.22L272.29 10.22L272.29 10.22Q272.36 10.15 272.68 10.06L272.68 10.06L272.68 10.06Q273 9.97 273.46 9.86L273.46 9.86L273.46 9.86Q273.67 9.31 273.83 8.88L273.83 8.88L273.83 8.88Q273.98 8.46 274.11 8.07L274.11 8.07L274.11 8.07Q274.23 7.69 274.34 7.32L274.34 7.32L274.34 7.32Q274.44 6.94 274.53 6.52L274.53 6.52L274.46 6.52L274.46 6.52Q273.92 6.52 273.59 6.27L273.59 6.27L273.59 6.27Q273.27 6.02 273.27 5.61L273.27 5.61L273.27 5.61Q273.27 5.50 273.30 5.35L273.30 5.35L273.30 5.35Q273.34 5.19 273.39 5.08L273.39 5.08L273.39 5.08Q273.66 5.12 273.92 5.14L273.92 5.14L273.92 5.14Q274.18 5.15 274.60 5.15L274.60 5.15L274.60 5.15Q275.48 5.15 276.25 5.10L276.25 5.10L276.25 5.10Q277.02 5.05 277.64 5.00L277.64 5.00L277.64 5.00Q278.26 4.94 278.71 4.89L278.71 4.89L278.71 4.89Q279.16 4.84 279.40 4.84L279.40 4.84L279.40 4.84Q279.72 4.84 279.97 5.18L279.97 5.18L279.97 5.18Q280.22 5.52 280.36 6.13L280.36 6.13L280.36 6.13Q279.92 6.09 279.64 6.08L279.64 6.08L279.64 6.08Q279.37 6.06 279.16 6.06L279.16 6.06L279.16 6.06Q278.45 6.06 277.85 6.13L277.85 6.13L277.85 6.13Q277.26 6.19 276.72 6.27L276.72 6.27L276.72 6.27Q276.64 6.40 276.53 6.59L276.53 6.59L276.53 6.59Q276.43 6.79 276.26 7.15L276.26 7.15L276.26 7.15Q276.09 7.50 275.83 8.08L275.83 8.08L275.83 8.08Q275.58 8.65 275.18 9.53L275.18 9.53L275.18 9.53Q275.73 9.45 276.23 9.39L276.23 9.39L276.23 9.39Q276.72 9.34 277.06 9.34ZM291.69 9.21L291.69 9.21L291.69 9.21Q292.15 9.21 292.41 9.46L292.41 9.46L292.41 9.46Q292.67 9.72 292.67 10.16L292.67 10.16L292.67 10.16Q292.67 10.28 292.65 10.39L292.65 10.39L292.65 10.39Q292.63 10.51 292.60 10.60L292.60 10.60L292.60 10.60Q292.42 10.57 292.19 10.55L292.19 10.55L292.19 10.55Q291.97 10.53 291.66 10.53L291.66 10.53L291.66 10.53Q291.06 10.53 290.44 10.63L290.44 10.63L290.44 10.63Q289.83 10.74 289.27 10.81L289.27 10.81L289.27 10.81Q288.95 11.55 288.68 12.24L288.68 12.24L288.68 12.24Q288.41 12.94 288.22 13.51L288.22 13.51L288.22 13.51Q288.04 14.08 287.93 14.50L287.93 14.50L287.93 14.50Q287.83 14.92 287.81 15.13L287.81 15.13L287.81 15.13Q288.95 14.90 290.10 14.73L290.10 14.73L290.10 14.73Q291.26 14.56 292.53 14.48L292.53 14.48L292.53 14.48Q292.68 14.71 292.79 14.99L292.79 14.99L292.79 14.99Q292.89 15.27 292.89 15.60L292.89 15.60L292.89 15.60Q292.89 15.68 292.89 15.78L292.89 15.78L292.89 15.78Q292.89 15.88 292.87 15.97L292.87 15.97L292.87 15.97Q292.47 15.96 292.04 15.95L292.04 15.95L292.04 15.95Q291.61 15.95 290.91 15.95L290.91 15.95L290.91 15.95Q290.44 15.95 290.03 15.97L290.03 15.97L290.03 15.97Q289.62 15.99 289.20 16.03L289.20 16.03L289.20 16.03Q288.78 16.07 288.31 16.14L288.31 16.14L288.31 16.14Q287.84 16.21 287.25 16.31L287.25 16.31L287.25 16.31Q286.61 16.06 286.01 15.08L286.01 15.08L286.01 15.08Q286.24 14.57 286.67 13.54L286.67 13.54L286.67 13.54Q287.10 12.52 287.76 10.79L287.76 10.79L287.76 10.79Q287.13 10.60 286.93 10.09L286.93 10.09L286.93 10.09Q287 10.02 287.34 9.92L287.34 9.92L287.34 9.92Q287.67 9.81 288.16 9.70L288.16 9.70L288.16 9.70Q288.37 9.16 288.52 8.75L288.52 8.75L288.52 8.75Q288.67 8.34 288.78 7.99L288.78 7.99L288.78 7.99Q288.89 7.63 288.98 7.29L288.98 7.29L288.98 7.29Q289.07 6.94 289.16 6.54L289.16 6.54L289.16 6.54Q288.67 6.51 288.39 6.27L288.39 6.27L288.39 6.27Q288.11 6.02 288.11 5.63L288.11 5.63L288.11 5.63Q288.11 5.52 288.14 5.36L288.14 5.36L288.14 5.36Q288.18 5.21 288.22 5.10L288.22 5.10L288.22 5.10Q288.50 5.14 288.76 5.15L288.76 5.15L288.76 5.15Q289.02 5.17 289.44 5.17L289.44 5.17L289.44 5.17Q290.32 5.17 291.09 5.12L291.09 5.12L291.09 5.12Q291.86 5.07 292.48 5.01L292.48 5.01L292.48 5.01Q293.10 4.96 293.55 4.91L293.55 4.91L293.55 4.91Q294 4.86 294.24 4.86L294.24 4.86L294.24 4.86Q294.56 4.86 294.81 5.19L294.81 5.19L294.81 5.19Q295.06 5.53 295.19 6.15L295.19 6.15L295.19 6.15Q294.76 6.10 294.48 6.09L294.48 6.09L294.48 6.09Q294.21 6.08 294 6.08L294 6.08L294 6.08Q293.23 6.08 292.59 6.15L292.59 6.15L292.59 6.15Q291.96 6.23 291.37 6.31L291.37 6.31L291.37 6.31Q291.28 6.44 291.18 6.64L291.18 6.64L291.18 6.64Q291.07 6.83 290.91 7.18L290.91 7.18L290.91 7.18Q290.74 7.53 290.49 8.06L290.49 8.06L290.49 8.06Q290.25 8.60 289.90 9.39L289.90 9.39L289.90 9.39Q290.43 9.31 290.90 9.26L290.90 9.26L290.90 9.26Q291.37 9.21 291.69 9.21ZM307.22 9.21L307.22 9.21L307.22 9.21Q307.68 9.21 307.94 9.46L307.94 9.46L307.94 9.46Q308.20 9.72 308.20 10.16L308.20 10.16L308.20 10.16Q308.20 10.28 308.17 10.39L308.17 10.39L308.17 10.39Q308.15 10.51 308.13 10.60L308.13 10.60L308.13 10.60Q307.94 10.57 307.72 10.55L307.72 10.55L307.72 10.55Q307.50 10.53 307.19 10.53L307.19 10.53L307.19 10.53Q306.59 10.53 305.97 10.63L305.97 10.63L305.97 10.63Q305.35 10.74 304.79 10.81L304.79 10.81L304.79 10.81Q304.47 11.55 304.21 12.24L304.21 12.24L304.21 12.24Q303.94 12.94 303.75 13.51L303.75 13.51L303.75 13.51Q303.56 14.08 303.46 14.50L303.46 14.50L303.46 14.50Q303.35 14.92 303.34 15.13L303.34 15.13L303.34 15.13Q304.47 14.90 305.63 14.73L305.63 14.73L305.63 14.73Q306.78 14.56 308.06 14.48L308.06 14.48L308.06 14.48Q308.21 14.71 308.31 14.99L308.31 14.99L308.31 14.99Q308.42 15.27 308.42 15.60L308.42 15.60L308.42 15.60Q308.42 15.68 308.42 15.78L308.42 15.78L308.42 15.78Q308.42 15.88 308.39 15.97L308.39 15.97L308.39 15.97Q308 15.96 307.57 15.95L307.57 15.95L307.57 15.95Q307.13 15.95 306.43 15.95L306.43 15.95L306.43 15.95Q305.97 15.95 305.56 15.97L305.56 15.97L305.56 15.97Q305.14 15.99 304.72 16.03L304.72 16.03L304.72 16.03Q304.30 16.07 303.83 16.14L303.83 16.14L303.83 16.14Q303.37 16.21 302.78 16.31L302.78 16.31L302.78 16.31Q302.13 16.06 301.53 15.08L301.53 15.08L301.53 15.08Q301.77 14.57 302.20 13.54L302.20 13.54L302.20 13.54Q302.62 12.52 303.28 10.79L303.28 10.79L303.28 10.79Q302.65 10.60 302.46 10.09L302.46 10.09L302.46 10.09Q302.53 10.02 302.86 9.92L302.86 9.92L302.86 9.92Q303.20 9.81 303.69 9.70L303.69 9.70L303.69 9.70Q303.90 9.16 304.04 8.75L304.04 8.75L304.04 8.75Q304.19 8.34 304.30 7.99L304.30 7.99L304.30 7.99Q304.42 7.63 304.51 7.29L304.51 7.29L304.51 7.29Q304.60 6.94 304.68 6.54L304.68 6.54L304.68 6.54Q304.19 6.51 303.91 6.27L303.91 6.27L303.91 6.27Q303.63 6.02 303.63 5.63L303.63 5.63L303.63 5.63Q303.63 5.52 303.67 5.36L303.67 5.36L303.67 5.36Q303.70 5.21 303.74 5.10L303.74 5.10L303.74 5.10Q304.02 5.14 304.28 5.15L304.28 5.15L304.28 5.15Q304.54 5.17 304.96 5.17L304.96 5.17L304.96 5.17Q305.84 5.17 306.61 5.12L306.61 5.12L306.61 5.12Q307.38 5.07 308.01 5.01L308.01 5.01L308.01 5.01Q308.63 4.96 309.08 4.91L309.08 4.91L309.08 4.91Q309.53 4.86 309.76 4.86L309.76 4.86L309.76 4.86Q310.09 4.86 310.34 5.19L310.34 5.19L310.34 5.19Q310.59 5.53 310.72 6.15L310.72 6.15L310.72 6.15Q310.28 6.10 310.01 6.09L310.01 6.09L310.01 6.09Q309.74 6.08 309.53 6.08L309.53 6.08L309.53 6.08Q308.76 6.08 308.12 6.15L308.12 6.15L308.12 6.15Q307.48 6.23 306.89 6.31L306.89 6.31L306.89 6.31Q306.81 6.44 306.70 6.64L306.70 6.64L306.70 6.64Q306.60 6.83 306.43 7.18L306.43 7.18L306.43 7.18Q306.26 7.53 306.02 8.06L306.02 8.06L306.02 8.06Q305.77 8.60 305.42 9.39L305.42 9.39L305.42 9.39Q305.96 9.31 306.42 9.26L306.42 9.26L306.42 9.26Q306.89 9.21 307.22 9.21ZM317.90 14.45L317.90 14.45L317.90 14.45Q318.11 13.99 318.40 13.26L318.40 13.26L318.40 13.26Q318.70 12.53 319.02 11.68L319.02 11.68L319.02 11.68Q319.34 10.84 319.68 9.95L319.68 9.95L319.68 9.95Q320.01 9.06 320.31 8.26L320.31 8.26L320.31 8.26Q320.60 7.46 320.82 6.83L320.82 6.83L320.82 6.83Q321.03 6.20 321.13 5.87L321.13 5.87L321.13 5.87Q320.25 6.23 319.62 6.97L319.62 6.97L319.62 6.97Q318.99 7.71 318.67 8.83L318.67 8.83L318.67 8.83Q318.35 8.72 318.08 8.43L318.08 8.43L318.08 8.43Q317.81 8.15 317.73 7.71L317.73 7.71L317.73 7.71Q317.87 7.07 318.25 6.54L318.25 6.54L318.25 6.54Q318.64 6.01 319.23 5.63L319.23 5.63L319.23 5.63Q319.82 5.25 320.59 5.05L320.59 5.05L320.59 5.05Q321.36 4.84 322.24 4.84L322.24 4.84L322.24 4.84Q323.36 4.84 324.30 5.17L324.30 5.17L324.30 5.17Q325.23 5.50 325.91 6.09L325.91 6.09L325.91 6.09Q326.58 6.68 326.96 7.50L326.96 7.50L326.96 7.50Q327.33 8.33 327.33 9.34L327.33 9.34L327.33 9.34Q327.33 10.71 326.83 11.96L326.83 11.96L326.83 11.96Q326.33 13.20 325.46 14.15L325.46 14.15L325.46 14.15Q324.60 15.11 323.47 15.67L323.47 15.67L323.47 15.67Q322.34 16.24 321.09 16.24L321.09 16.24L321.09 16.24Q319.94 16.24 319.12 15.79L319.12 15.79L319.12 15.79Q318.30 15.33 317.90 14.45ZM322.84 5.54L322.84 5.54L322.84 5.54Q322.14 5.54 321.51 5.74L321.51 5.74L321.51 5.74Q322.13 5.96 322.53 6.21L322.53 6.21L322.53 6.21Q322.94 6.45 323.09 6.59L323.09 6.59L323.09 6.59Q322.98 6.75 322.76 7.14L322.76 7.14L322.76 7.14Q322.55 7.53 322.26 8.09L322.26 8.09L322.26 8.09Q321.97 8.65 321.65 9.32L321.65 9.32L321.65 9.32Q321.33 9.98 321.02 10.68L321.02 10.68L321.02 10.68Q320.22 12.46 319.87 13.48L319.87 13.48L319.87 13.48Q319.51 14.50 319.51 14.90L319.51 14.90L319.51 14.90Q319.70 14.97 319.98 14.99L319.98 14.99L319.98 14.99Q320.26 15.02 320.59 15.02L320.59 15.02L320.59 15.02Q321.72 15.02 322.74 14.50L322.74 14.50L322.74 14.50Q323.75 13.97 324.51 13.09L324.51 13.09L324.51 13.09Q325.28 12.21 325.72 11.04L325.72 11.04L325.72 11.04Q326.16 9.87 326.16 8.58L326.16 8.58L326.16 8.58Q326.16 7.14 325.26 6.34L325.26 6.34L325.26 6.34Q324.37 5.54 322.84 5.54ZM335.27 14.38L335.27 14.38L335.27 14.38Q335.27 13.87 335.43 13.07L335.43 13.07L335.43 13.07Q335.59 12.26 335.85 11.33L335.85 11.33L335.85 11.33Q336.11 10.40 336.45 9.43L336.45 9.43L336.45 9.43Q336.78 8.46 337.13 7.60L337.13 7.60L337.13 7.60Q337.48 6.75 337.82 6.10L337.82 6.10L337.82 6.10Q338.16 5.46 338.42 5.18L338.42 5.18L338.42 5.18Q338.56 5.19 338.79 5.29L338.79 5.29L338.79 5.29Q339.02 5.38 339.26 5.50L339.26 5.50L339.26 5.50Q339.50 5.63 339.70 5.78L339.70 5.78L339.70 5.78Q339.89 5.92 339.95 6.05L339.95 6.05L339.95 6.05Q339.54 6.41 339.14 7.15L339.14 7.15L339.14 7.15Q338.74 7.88 338.37 8.82L338.37 8.82L338.37 8.82Q338.00 9.76 337.68 10.80L337.68 10.80L337.68 10.80Q337.36 11.84 337.12 12.82L337.12 12.82L337.12 12.82Q336.88 13.80 336.75 14.64L336.75 14.64L336.75 14.64Q336.62 15.48 336.62 16.00L336.62 16.00L336.62 16.00Q336.62 16.24 336.66 16.30L336.66 16.30L336.66 16.30Q336.35 16.28 336.21 16.19L336.21 16.19L336.21 16.19Q336.07 16.10 335.99 16.00L335.99 16.00L335.99 16.00Q335.92 15.89 335.85 15.79L335.85 15.79L335.85 15.79Q335.79 15.68 335.66 15.62L335.66 15.62L335.66 15.62Q335.57 15.58 335.50 15.43L335.50 15.43L335.50 15.43Q335.43 15.27 335.38 15.09L335.38 15.09L335.38 15.09Q335.33 14.90 335.30 14.70L335.30 14.70L335.30 14.70Q335.27 14.50 335.27 14.38ZM347.51 16.24L347.51 16.24L347.51 16.24Q346.71 16.00 346.43 15.79L346.43 15.79L346.43 15.79Q346.15 15.57 346.15 15.19L346.15 15.19L346.15 15.19Q346.15 14.77 346.35 14.01L346.35 14.01L346.35 14.01Q346.54 13.24 346.86 12.31L346.86 12.31L346.86 12.31Q347.17 11.37 347.58 10.35L347.58 10.35L347.58 10.35Q347.98 9.32 348.40 8.39L348.40 8.39L348.40 8.39Q348.82 7.45 349.22 6.67L349.22 6.67L349.22 6.67Q349.62 5.89 349.93 5.46L349.93 5.46L349.83 4.87L349.83 4.87Q350.03 4.87 350.38 4.97L350.38 4.97L350.38 4.97Q350.73 5.07 351.09 5.21L351.09 5.21L351.09 5.21Q351.44 5.35 351.72 5.49L351.72 5.49L351.72 5.49Q351.99 5.64 352.02 5.74L352.02 5.74L352.02 5.74Q351.95 6.08 351.90 6.76L351.90 6.76L351.90 6.76Q351.86 7.43 351.86 8.20L351.86 8.20L351.86 8.20Q351.86 9.73 351.98 11.19L351.98 11.19L351.98 11.19Q352.10 12.66 352.53 14.17L352.53 14.17L352.53 14.17Q352.76 13.05 353.02 11.94L353.02 11.94L353.02 11.94Q353.28 10.82 353.56 9.81L353.56 9.81L353.56 9.81Q353.84 8.79 354.12 7.92L354.12 7.92L354.12 7.92Q354.40 7.06 354.66 6.40L354.66 6.40L354.66 6.40Q354.91 5.75 355.14 5.38L355.14 5.38L355.14 5.38Q355.36 5.01 355.54 4.98L355.54 4.98L355.54 4.98Q355.70 5.01 355.88 5.10L355.88 5.10L355.88 5.10Q356.06 5.19 356.23 5.32L356.23 5.32L356.23 5.32Q356.40 5.45 356.54 5.60L356.54 5.60L356.54 5.60Q356.68 5.75 356.76 5.91L356.76 5.91L356.76 5.91Q356.31 6.09 355.87 6.76L355.87 6.76L355.87 6.76Q355.43 7.43 355.03 8.39L355.03 8.39L355.03 8.39Q354.63 9.35 354.29 10.47L354.29 10.47L354.29 10.47Q353.95 11.59 353.69 12.68L353.69 12.68L353.69 12.68Q353.43 13.76 353.28 14.69L353.28 14.69L353.28 14.69Q353.14 15.61 353.12 16.17L353.12 16.17L353.12 16.17Q353.12 16.20 353.14 16.21L353.14 16.21L353.14 16.21Q353.09 16.23 353.05 16.23L353.05 16.23L353.05 16.23Q353.00 16.23 352.95 16.23L352.95 16.23L352.95 16.23Q352.31 16.23 351.81 16.07L351.81 16.07L351.81 16.07Q351.32 15.90 351.16 15.61L351.16 15.61L351.16 15.61Q350.87 14.43 350.67 13.34L350.67 13.34L350.67 13.34Q350.48 12.25 350.34 11.16L350.34 11.16L350.34 11.16Q350.21 10.07 350.13 8.95L350.13 8.95L350.13 8.95Q350.06 7.84 350.01 6.62L350.01 6.62L350.01 6.62Q349.75 7.04 349.45 7.72L349.45 7.72L349.45 7.72Q349.16 8.40 348.88 9.21L348.88 9.21L348.88 9.21Q348.60 10.02 348.34 10.92L348.34 10.92L348.34 10.92Q348.08 11.82 347.89 12.67L347.89 12.67L347.89 12.67Q347.69 13.52 347.58 14.29L347.58 14.29L347.58 14.29Q347.47 15.05 347.47 15.61L347.47 15.61L347.47 15.61Q347.47 15.90 347.47 16.03L347.47 16.03L347.47 16.03Q347.48 16.16 347.51 16.24ZM370.58 10.72L370.58 10.72L370.58 10.72Q370.94 10.72 371.15 10.98L371.15 10.98L371.15 10.98Q371.36 11.23 371.36 11.68L371.36 11.68L371.36 11.68Q371.36 11.79 371.35 11.91L371.35 11.91L371.35 11.91Q371.34 12.03 371.31 12.11L371.31 12.11L371.31 12.11Q371.01 12.04 370.66 12.03L370.66 12.03L370.66 12.03Q370.58 12.64 370.22 13.32L370.22 13.32L370.22 13.32Q369.85 14 369.33 14.60L369.33 14.60L369.33 14.60Q368.82 15.19 368.20 15.64L368.20 15.64L368.20 15.64Q367.58 16.09 366.98 16.24L366.98 16.24L366.98 16.24Q365.11 16.20 364.25 15.27L364.25 15.27L364.25 15.27Q363.38 14.34 363.38 12.36L363.38 12.36L363.38 12.36Q363.38 10.92 363.92 9.57L363.92 9.57L363.92 9.57Q364.45 8.22 365.33 7.17L365.33 7.17L365.33 7.17Q366.21 6.12 367.35 5.48L367.35 5.48L367.35 5.48Q368.49 4.84 369.73 4.84L369.73 4.84L369.73 4.84Q370.69 4.84 371.23 5.25L371.23 5.25L371.23 5.25Q371.77 5.66 371.77 6.40L371.77 6.40L371.77 6.40Q371.77 6.89 371.54 7.31L371.54 7.31L371.54 7.31Q371.31 7.73 370.78 8.22L370.78 8.22L370.78 8.22Q370.45 8.12 370.22 7.88L370.22 7.88L370.22 7.88Q369.98 7.63 369.92 7.31L369.92 7.31L369.92 7.31Q370.40 6.96 370.59 6.66L370.59 6.66L370.59 6.66Q370.79 6.37 370.79 5.96L370.79 5.96L370.79 5.96Q370.79 5.32 370.02 5.32L370.02 5.32L370.02 5.32Q369.39 5.32 368.67 5.79L368.67 5.79L368.67 5.79Q367.95 6.26 367.22 7.14L367.22 7.14L367.22 7.14Q366.18 8.39 365.71 9.71L365.71 9.71L365.71 9.71Q365.23 11.03 365.23 12.68L365.23 12.68L365.23 12.68Q365.23 13.30 365.36 13.80L365.36 13.80L365.36 13.80Q365.48 14.31 365.69 14.69L365.69 14.69L365.69 14.69Q365.90 15.06 366.19 15.29L366.19 15.29L366.19 15.29Q366.48 15.51 366.81 15.54L366.81 15.54L366.81 15.54Q367.26 15.44 367.71 15.09L367.71 15.09L367.71 15.09Q368.16 14.73 368.53 14.25L368.53 14.25L368.53 14.25Q368.90 13.76 369.16 13.21L369.16 13.21L369.16 13.21Q369.42 12.66 369.47 12.15L369.47 12.15L369.47 12.15Q369.08 12.24 368.73 12.31L368.73 12.31L368.73 12.31Q368.37 12.39 368.05 12.39L368.05 12.39L368.05 12.39Q367.63 12.39 367.31 12.18L367.31 12.18L367.31 12.18Q367.00 11.97 366.88 11.61L366.88 11.61L366.88 11.61Q367.14 11.47 367.62 11.31L367.62 11.31L367.62 11.31Q368.10 11.16 368.65 11.03L368.65 11.03L368.65 11.03Q369.19 10.89 369.72 10.81L369.72 10.81L369.72 10.81Q370.24 10.72 370.58 10.72Z"></path></g></svg>